<?xml version="1.0" encoding="UTF-8" standalone="no"?>
<!-- Created with matplotlib (http://matplotlib.org/) -->

<svg
   xmlns:dc="http://purl.org/dc/elements/1.1/"
   xmlns:cc="http://creativecommons.org/ns#"
   xmlns:rdf="http://www.w3.org/1999/02/22-rdf-syntax-ns#"
   xmlns:svg="http://www.w3.org/2000/svg"
   xmlns="http://www.w3.org/2000/svg"
   xmlns:xlink="http://www.w3.org/1999/xlink"
   xmlns:sodipodi="http://sodipodi.sourceforge.net/DTD/sodipodi-0.dtd"
   xmlns:inkscape="http://www.inkscape.org/namespaces/inkscape"
   height="396pt"
   version="1.1"
   viewBox="0 0 576 396"
   width="576pt"
   id="svg16419"
   inkscape:version="0.91 r13725"
   sodipodi:docname="atribuicao_len_ss_H.svg">
  <metadata
     id="metadata16649">
    <rdf:RDF>
      <cc:Work
         rdf:about="">
        <dc:format>image/svg+xml</dc:format>
        <dc:type
           rdf:resource="http://purl.org/dc/dcmitype/StillImage" />
        <dc:title></dc:title>
      </cc:Work>
    </rdf:RDF>
  </metadata>
  <sodipodi:namedview
     pagecolor="#ffffff"
     bordercolor="#666666"
     borderopacity="1"
     objecttolerance="10"
     gridtolerance="10"
     guidetolerance="10"
     inkscape:pageopacity="0"
     inkscape:pageshadow="2"
     inkscape:window-width="1873"
     inkscape:window-height="1056"
     id="namedview16647"
     showgrid="false"
     inkscape:zoom="1.6555556"
     inkscape:cx="360"
     inkscape:cy="247.5"
     inkscape:window-x="47"
     inkscape:window-y="24"
     inkscape:window-maximized="1"
     inkscape:current-layer="svg16419" />
  <defs
     id="defs16421">
    <style
       type="text/css"
       id="style16423">
*{stroke-linecap:butt;stroke-linejoin:round;}
  </style>
  </defs>
  <defs
     id="defs16642">
    <clipPath
       id="pfb1776f13f">
      <rect
         height="304.92"
         width="446.4"
         x="72"
         y="47.52"
         id="rect16645" />
    </clipPath>
  </defs>
  <g
     id="g17193">
    <g
       id="figure_1">
      <g
         id="patch_1">
        <path
           id="path16427"
           style="fill:#ffffff;"
           d="M 0 396  L 576 396  L 576 0  L 0 0  z " />
      </g>
      <g
         id="axes_1">
        <g
           id="patch_2">
          <path
             id="path16431"
             style="fill:#eaeaf2;"
             d="M 72 352.44  L 518.4 352.44  L 518.4 47.52  L 72 47.52  z " />
        </g>
        <g
           id="matplotlib.axis_1">
          <g
             id="xtick_1">
            <g
               id="line2d_1" />
            <g
               id="text_1">
              <!-- 0 -->
              <defs
                 id="defs16437">
                <path
                   id="LiberationSans-30"
                   d="M 51.703125 34.421875  Q 51.703125 24.515625 49.828125 17.75  Q 47.953125 10.984375 44.703125 6.8125  Q 41.453125 2.640625 37.0625 0.828125  Q 32.671875 -0.984375 27.6875 -0.984375  Q 22.65625 -0.984375 18.3125 0.828125  Q 13.96875 2.640625 10.765625 6.78125  Q 7.5625 10.9375 5.734375 17.703125  Q 3.90625 24.46875 3.90625 34.421875  Q 3.90625 44.828125 5.734375 51.640625  Q 7.5625 58.453125 10.78125 62.5  Q 14.015625 66.546875 18.40625 68.1875  Q 22.796875 69.828125 27.984375 69.828125  Q 32.90625 69.828125 37.21875 68.1875  Q 41.546875 66.546875 44.765625 62.5  Q 48 58.453125 49.84375 51.640625  Q 51.703125 44.828125 51.703125 34.421875  z M 42.78125 34.421875  Q 42.78125 42.625 41.796875 48.0625  Q 40.828125 53.515625 38.921875 56.765625  Q 37.015625 60.015625 34.25 61.359375  Q 31.5 62.703125 27.984375 62.703125  Q 24.265625 62.703125 21.4375 61.328125  Q 18.609375 59.96875 16.671875 56.71875  Q 14.75 53.46875 13.765625 48.015625  Q 12.796875 42.578125 12.796875 34.421875  Q 12.796875 26.515625 13.796875 21.09375  Q 14.796875 15.671875 16.71875 12.375  Q 18.65625 9.078125 21.4375 7.640625  Q 24.21875 6.203125 27.78125 6.203125  Q 31.25 6.203125 34.03125 7.640625  Q 36.8125 9.078125 38.734375 12.375  Q 40.671875 15.671875 41.71875 21.09375  Q 42.78125 26.515625 42.78125 34.421875  z " />
              </defs>
              <g
                 id="g16440"
                 transform="translate(125.019531 366.686875)scale(0.1 -0.1)"
                 style="fill:#262626;">
                <use
                   id="use16442"
                   xlink:href="#LiberationSans-30" />
              </g>
            </g>
          </g>
          <g
             id="xtick_2">
            <g
               id="line2d_2" />
            <g
               id="text_2">
              <!-- 1 -->
              <defs
                 id="defs16447">
                <path
                   id="LiberationSans-31"
                   d="M 7.625 0  L 7.625 7.46875  L 25.140625 7.46875  L 25.140625 60.40625  L 9.625 49.3125  L 9.625 57.625  L 25.875 68.796875  L 33.984375 68.796875  L 33.984375 7.46875  L 50.734375 7.46875  L 50.734375 0  z " />
              </defs>
              <g
                 id="g16450"
                 transform="translate(236.619531 366.686875)scale(0.1 -0.1)"
                 style="fill:#262626;">
                <use
                   id="use16452"
                   xlink:href="#LiberationSans-31" />
              </g>
            </g>
          </g>
          <g
             id="xtick_3">
            <g
               id="line2d_3" />
            <g
               id="text_3">
              <!-- 2 -->
              <defs
                 id="defs16457">
                <path
                   id="LiberationSans-32"
                   d="M 5.03125 0  L 5.03125 6.203125  Q 7.515625 11.921875 11.109375 16.28125  Q 14.703125 20.65625 18.65625 24.1875  Q 22.609375 27.734375 26.484375 30.765625  Q 30.375 33.796875 33.5 36.8125  Q 36.625 39.84375 38.546875 43.15625  Q 40.484375 46.484375 40.484375 50.6875  Q 40.484375 53.609375 39.59375 55.828125  Q 38.71875 58.0625 37.0625 59.5625  Q 35.40625 61.078125 33.078125 61.828125  Q 30.765625 62.59375 27.9375 62.59375  Q 25.296875 62.59375 22.96875 61.859375  Q 20.65625 61.140625 18.84375 59.671875  Q 17.046875 58.203125 15.890625 56.03125  Q 14.75 53.859375 14.40625 50.984375  L 5.421875 51.8125  Q 5.859375 55.515625 7.46875 58.78125  Q 9.078125 62.0625 11.90625 64.53125  Q 14.75 67 18.71875 68.40625  Q 22.703125 69.828125 27.9375 69.828125  Q 33.0625 69.828125 37.0625 68.609375  Q 41.0625 67.390625 43.8125 64.984375  Q 46.578125 62.59375 48.046875 59.078125  Q 49.515625 55.5625 49.515625 50.984375  Q 49.515625 47.515625 48.265625 44.390625  Q 47.015625 41.265625 44.9375 38.421875  Q 42.875 35.59375 40.140625 32.953125  Q 37.40625 30.328125 34.421875 27.8125  Q 31.453125 25.296875 28.421875 22.828125  Q 25.390625 20.359375 22.71875 17.859375  Q 20.0625 15.375 17.96875 12.8125  Q 15.875 10.25 14.703125 7.46875  L 50.59375 7.46875  L 50.59375 0  z " />
              </defs>
              <g
                 id="g16460"
                 transform="translate(348.219531 366.686875)scale(0.1 -0.1)"
                 style="fill:#262626;">
                <use
                   id="use16462"
                   xlink:href="#LiberationSans-32" />
              </g>
            </g>
          </g>
          <g
             id="xtick_4">
            <g
               id="line2d_4" />
            <g
               id="text_4">
              <!-- 3 -->
              <defs
                 id="defs16467">
                <path
                   id="LiberationSans-33"
                   d="M 51.21875 19  Q 51.21875 14.265625 49.671875 10.546875  Q 48.140625 6.84375 45.1875 4.265625  Q 42.234375 1.703125 37.859375 0.359375  Q 33.5 -0.984375 27.875 -0.984375  Q 21.484375 -0.984375 17.109375 0.609375  Q 12.75 2.203125 9.90625 4.8125  Q 7.078125 7.421875 5.65625 10.765625  Q 4.25 14.109375 3.8125 17.671875  L 12.890625 18.5  Q 13.28125 15.765625 14.328125 13.515625  Q 15.375 11.28125 17.1875 9.671875  Q 19 8.0625 21.625 7.171875  Q 24.265625 6.296875 27.875 6.296875  Q 34.515625 6.296875 38.296875 9.5625  Q 42.09375 12.84375 42.09375 19.28125  Q 42.09375 23.09375 40.40625 25.40625  Q 38.71875 27.734375 36.203125 29.03125  Q 33.6875 30.328125 30.734375 30.765625  Q 27.78125 31.203125 25.296875 31.203125  L 20.3125 31.203125  L 20.3125 38.8125  L 25.09375 38.8125  Q 27.59375 38.8125 30.265625 39.328125  Q 32.953125 39.84375 35.171875 41.1875  Q 37.40625 42.53125 38.84375 44.828125  Q 40.28125 47.125 40.28125 50.6875  Q 40.28125 56.203125 37.03125 59.390625  Q 33.796875 62.59375 27.390625 62.59375  Q 21.578125 62.59375 17.984375 59.609375  Q 14.40625 56.640625 13.8125 51.21875  L 4.984375 51.90625  Q 5.515625 56.453125 7.46875 59.8125  Q 9.421875 63.1875 12.421875 65.40625  Q 15.4375 67.625 19.28125 68.71875  Q 23.140625 69.828125 27.484375 69.828125  Q 33.25 69.828125 37.390625 68.375  Q 41.546875 66.9375 44.1875 64.46875  Q 46.828125 62.015625 48.0625 58.6875  Q 49.3125 55.375 49.3125 51.609375  Q 49.3125 48.578125 48.484375 45.9375  Q 47.65625 43.3125 45.890625 41.203125  Q 44.140625 39.109375 41.421875 37.59375  Q 38.71875 36.078125 34.90625 35.296875  L 34.90625 35.109375  Q 39.0625 34.671875 42.140625 33.21875  Q 45.21875 31.78125 47.21875 29.625  Q 49.21875 27.484375 50.21875 24.75  Q 51.21875 22.015625 51.21875 19  z " />
              </defs>
              <g
                 id="g16470"
                 transform="translate(459.819531 366.686875)scale(0.1 -0.1)"
                 style="fill:#262626;">
                <use
                   id="use16472"
                   xlink:href="#LiberationSans-33" />
              </g>
            </g>
          </g>
        </g>
        <g
           id="matplotlib.axis_2">
          <g
             id="ytick_1">
            <g
               id="line2d_5">
              <path
                 id="path16477"
                 style="fill:none;stroke:#ffffff;stroke-linecap:round;"
                 d="M 72 352.44  L 518.4 352.44  "
                 clip-path="url(#pfb1776f13f)" />
            </g>
            <g
               id="line2d_6" />
            <g
               id="text_5">
              <!-- 0 -->
              <g
                 id="g16481"
                 transform="translate(59.439062 356.063438)scale(0.1 -0.1)"
                 style="fill:#262626;">
                <use
                   id="use16483"
                   xlink:href="#LiberationSans-30" />
              </g>
            </g>
          </g>
          <g
             id="ytick_2">
            <g
               id="line2d_7">
              <path
                 id="path16487"
                 style="fill:none;stroke:#ffffff;stroke-linecap:round;"
                 d="M 72 302.288684  L 518.4 302.288684  "
                 clip-path="url(#pfb1776f13f)" />
            </g>
            <g
               id="line2d_8" />
            <g
               id="text_6">
              <!-- 5 -->
              <defs
                 id="defs16491">
                <path
                   id="LiberationSans-35"
                   d="M 51.421875 22.40625  Q 51.421875 17.234375 49.859375 12.9375  Q 48.296875 8.640625 45.21875 5.53125  Q 42.140625 2.4375 37.578125 0.71875  Q 33.015625 -0.984375 27 -0.984375  Q 21.578125 -0.984375 17.546875 0.28125  Q 13.53125 1.5625 10.734375 3.78125  Q 7.953125 6 6.3125 8.984375  Q 4.6875 11.96875 4 15.375  L 12.890625 16.40625  Q 13.421875 14.453125 14.390625 12.625  Q 15.375 10.796875 17.0625 9.34375  Q 18.75 7.90625 21.21875 7.046875  Q 23.6875 6.203125 27.203125 6.203125  Q 30.609375 6.203125 33.390625 7.25  Q 36.1875 8.296875 38.15625 10.34375  Q 40.140625 12.40625 41.203125 15.375  Q 42.28125 18.359375 42.28125 22.21875  Q 42.28125 25.390625 41.25 28.046875  Q 40.234375 30.71875 38.328125 32.640625  Q 36.421875 34.578125 33.65625 35.640625  Q 30.90625 36.71875 27.390625 36.71875  Q 25.203125 36.71875 23.34375 36.328125  Q 21.484375 35.9375 19.890625 35.25  Q 18.3125 34.578125 17.015625 33.671875  Q 15.71875 32.765625 14.59375 31.78125  L 6 31.78125  L 8.296875 68.796875  L 47.40625 68.796875  L 47.40625 61.328125  L 16.3125 61.328125  L 14.984375 39.5  Q 17.328125 41.3125 20.84375 42.59375  Q 24.359375 43.890625 29.203125 43.890625  Q 34.328125 43.890625 38.421875 42.328125  Q 42.53125 40.765625 45.40625 37.90625  Q 48.296875 35.0625 49.859375 31.109375  Q 51.421875 27.15625 51.421875 22.40625  z " />
              </defs>
              <g
                 id="g16494"
                 transform="translate(59.439062 305.912122)scale(0.1 -0.1)"
                 style="fill:#262626;">
                <use
                   id="use16496"
                   xlink:href="#LiberationSans-35" />
              </g>
            </g>
          </g>
          <g
             id="ytick_3">
            <g
               id="line2d_9">
              <path
                 id="path16500"
                 style="fill:none;stroke:#ffffff;stroke-linecap:round;"
                 d="M 72 252.137368  L 518.4 252.137368  "
                 clip-path="url(#pfb1776f13f)" />
            </g>
            <g
               id="line2d_10" />
            <g
               id="text_7">
              <!-- 10 -->
              <g
                 id="g16504"
                 transform="translate(53.878125 255.760806)scale(0.1 -0.1)"
                 style="fill:#262626;">
                <use
                   id="use16506"
                   xlink:href="#LiberationSans-31" />
                <use
                   id="use16508"
                   xlink:href="#LiberationSans-30"
                   x="55.615234" />
              </g>
            </g>
          </g>
          <g
             id="ytick_4">
            <g
               id="line2d_11">
              <path
                 id="path16512"
                 style="fill:none;stroke:#ffffff;stroke-linecap:round;"
                 d="M 72 201.986053  L 518.4 201.986053  "
                 clip-path="url(#pfb1776f13f)" />
            </g>
            <g
               id="line2d_12" />
            <g
               id="text_8">
              <!-- 15 -->
              <g
                 id="g16516"
                 transform="translate(53.878125 205.60949)scale(0.1 -0.1)"
                 style="fill:#262626;">
                <use
                   id="use16518"
                   xlink:href="#LiberationSans-31" />
                <use
                   id="use16520"
                   xlink:href="#LiberationSans-35"
                   x="55.615234" />
              </g>
            </g>
          </g>
          <g
             id="ytick_5">
            <g
               id="line2d_13">
              <path
                 id="path16524"
                 style="fill:none;stroke:#ffffff;stroke-linecap:round;"
                 d="M 72 151.834737  L 518.4 151.834737  "
                 clip-path="url(#pfb1776f13f)" />
            </g>
            <g
               id="line2d_14" />
            <g
               id="text_9">
              <!-- 20 -->
              <g
                 id="g16528"
                 transform="translate(53.878125 155.458174)scale(0.1 -0.1)"
                 style="fill:#262626;">
                <use
                   id="use16530"
                   xlink:href="#LiberationSans-32" />
                <use
                   id="use16532"
                   xlink:href="#LiberationSans-30"
                   x="55.615234" />
              </g>
            </g>
          </g>
          <g
             id="ytick_6">
            <g
               id="line2d_15">
              <path
                 id="path16536"
                 style="fill:none;stroke:#ffffff;stroke-linecap:round;"
                 d="M 72 101.683421  L 518.4 101.683421  "
                 clip-path="url(#pfb1776f13f)" />
            </g>
            <g
               id="line2d_16" />
            <g
               id="text_10">
              <!-- 25 -->
              <g
                 id="g16540"
                 transform="translate(53.878125 105.306859)scale(0.1 -0.1)"
                 style="fill:#262626;">
                <use
                   id="use16542"
                   xlink:href="#LiberationSans-32" />
                <use
                   id="use16544"
                   xlink:href="#LiberationSans-35"
                   x="55.615234" />
              </g>
            </g>
          </g>
          <g
             id="ytick_7">
            <g
               id="line2d_17">
              <path
                 id="path16548"
                 style="fill:none;stroke:#ffffff;stroke-linecap:round;"
                 d="M 72 51.532105  L 518.4 51.532105  "
                 clip-path="url(#pfb1776f13f)" />
            </g>
            <g
               id="line2d_18" />
            <g
               id="text_11">
              <!-- 30 -->
              <g
                 id="g16552"
                 transform="translate(53.878125 55.155543)scale(0.1 -0.1)"
                 style="fill:#262626;">
                <use
                   id="use16554"
                   xlink:href="#LiberationSans-33" />
                <use
                   id="use16556"
                   xlink:href="#LiberationSans-30"
                   x="55.615234" />
              </g>
            </g>
          </g>
        </g>
        <g
           id="patch_3">
          <path
             id="path16559"
             style="fill:#597dbe;stroke:#545454;stroke-linejoin:miter;stroke-width:1.75;"
             d="M 83.16 312.318947  L 172.44 312.318947  L 172.44 222.046579  L 83.16 222.046579  L 83.16 312.318947  z "
             clip-path="url(#pfb1776f13f)" />
        </g>
        <g
           id="patch_4">
          <path
             id="path16562"
             style="fill:#76bf72;stroke:#545454;stroke-linejoin:miter;stroke-width:1.75;"
             d="M 194.76 312.318947  L 284.04 312.318947  L 284.04 212.016316  L 194.76 212.016316  L 194.76 312.318947  z "
             clip-path="url(#pfb1776f13f)" />
        </g>
        <g
           id="patch_5">
          <path
             id="path16565"
             style="fill:#c76e6e;stroke:#545454;stroke-linejoin:miter;stroke-width:1.75;"
             d="M 306.36 272.197895  L 395.64 272.197895  L 395.64 191.955789  L 306.36 191.955789  L 306.36 272.197895  z "
             clip-path="url(#pfb1776f13f)" />
        </g>
        <g
           id="patch_6">
          <path
             id="path16568"
             style="fill:#af85be;stroke:#545454;stroke-linejoin:miter;stroke-width:1.75;"
             d="M 417.96 282.228158  L 507.24 282.228158  L 507.24 212.016316  L 417.96 212.016316  L 417.96 282.228158  z "
             clip-path="url(#pfb1776f13f)" />
        </g>
        <g
           id="line2d_19">
          <path
             id="path16571"
             style="fill:none;stroke:#545454;stroke-linecap:round;stroke-width:1.75;"
             d="M 127.8 312.318947  L 127.8 342.409737  "
             clip-path="url(#pfb1776f13f)" />
        </g>
        <g
           id="line2d_20">
          <path
             id="path16574"
             style="fill:none;stroke:#545454;stroke-linecap:round;stroke-width:1.75;"
             d="M 127.8 222.046579  L 127.8 91.653158  "
             clip-path="url(#pfb1776f13f)" />
        </g>
        <g
           id="line2d_21">
          <path
             id="path16577"
             style="fill:none;stroke:#545454;stroke-linecap:round;stroke-width:1.75;"
             d="M 105.48 342.409737  L 150.12 342.409737  "
             clip-path="url(#pfb1776f13f)" />
        </g>
        <g
           id="line2d_22">
          <path
             id="path16580"
             style="fill:none;stroke:#545454;stroke-linecap:round;stroke-width:1.75;"
             d="M 105.48 91.653158  L 150.12 91.653158  "
             clip-path="url(#pfb1776f13f)" />
        </g>
        <g
           id="line2d_23">
          <path
             id="path16583"
             style="fill:none;stroke:#545454;stroke-linecap:round;stroke-width:1.75;"
             d="M 239.4 312.318947  L 239.4 342.409737  "
             clip-path="url(#pfb1776f13f)" />
        </g>
        <g
           id="line2d_24">
          <path
             id="path16586"
             style="fill:none;stroke:#545454;stroke-linecap:round;stroke-width:1.75;"
             d="M 239.4 212.016316  L 239.4 61.562368  "
             clip-path="url(#pfb1776f13f)" />
        </g>
        <g
           id="line2d_25">
          <path
             id="path16589"
             style="fill:none;stroke:#545454;stroke-linecap:round;stroke-width:1.75;"
             d="M 217.08 342.409737  L 261.72 342.409737  "
             clip-path="url(#pfb1776f13f)" />
        </g>
        <g
           id="line2d_26">
          <path
             id="path16592"
             style="fill:none;stroke:#545454;stroke-linecap:round;stroke-width:1.75;"
             d="M 217.08 61.562368  L 261.72 61.562368  "
             clip-path="url(#pfb1776f13f)" />
        </g>
        <g
           id="line2d_27">
          <path
             id="path16595"
             style="fill:none;stroke:#545454;stroke-linecap:round;stroke-width:1.75;"
             d="M 351 272.197895  L 351 342.409737  "
             clip-path="url(#pfb1776f13f)" />
        </g>
        <g
           id="line2d_28">
          <path
             id="path16598"
             style="fill:none;stroke:#545454;stroke-linecap:round;stroke-width:1.75;"
             d="M 351 191.955789  L 351 71.592632  "
             clip-path="url(#pfb1776f13f)" />
        </g>
        <g
           id="line2d_29">
          <path
             id="path16601"
             style="fill:none;stroke:#545454;stroke-linecap:round;stroke-width:1.75;"
             d="M 328.68 342.409737  L 373.32 342.409737  "
             clip-path="url(#pfb1776f13f)" />
        </g>
        <g
           id="line2d_30">
          <path
             id="path16604"
             style="fill:none;stroke:#545454;stroke-linecap:round;stroke-width:1.75;"
             d="M 328.68 71.592632  L 373.32 71.592632  "
             clip-path="url(#pfb1776f13f)" />
        </g>
        <g
           id="line2d_31">
          <path
             id="path16607"
             style="fill:none;stroke:#545454;stroke-linecap:round;stroke-width:1.75;"
             d="M 462.6 282.228158  L 462.6 342.409737  "
             clip-path="url(#pfb1776f13f)" />
        </g>
        <g
           id="line2d_32">
          <path
             id="path16610"
             style="fill:none;stroke:#545454;stroke-linecap:round;stroke-width:1.75;"
             d="M 462.6 212.016316  L 462.6 111.713684  "
             clip-path="url(#pfb1776f13f)" />
        </g>
        <g
           id="line2d_33">
          <path
             id="path16613"
             style="fill:none;stroke:#545454;stroke-linecap:round;stroke-width:1.75;"
             d="M 440.28 342.409737  L 484.92 342.409737  "
             clip-path="url(#pfb1776f13f)" />
        </g>
        <g
           id="line2d_34">
          <path
             id="path16616"
             style="fill:none;stroke:#545454;stroke-linecap:round;stroke-width:1.75;"
             d="M 440.28 111.713684  L 484.92 111.713684  "
             clip-path="url(#pfb1776f13f)" />
        </g>
        <g
           id="line2d_35">
          <path
             id="path16619"
             style="fill:none;stroke:#545454;stroke-linecap:round;stroke-width:1.75;"
             d="M 83.16 272.197895  L 172.44 272.197895  "
             clip-path="url(#pfb1776f13f)" />
        </g>
        <g
           id="line2d_36">
          <path
             id="path16622"
             style="fill:none;stroke:#545454;stroke-linecap:round;stroke-width:1.75;"
             d="M 194.76 262.167632  L 284.04 262.167632  "
             clip-path="url(#pfb1776f13f)" />
        </g>
        <g
           id="line2d_37">
          <path
             id="path16625"
             style="fill:none;stroke:#545454;stroke-linecap:round;stroke-width:1.75;"
             d="M 306.36 232.076842  L 395.64 232.076842  "
             clip-path="url(#pfb1776f13f)" />
        </g>
        <g
           id="line2d_38">
          <path
             id="path16628"
             style="fill:none;stroke:#545454;stroke-linecap:round;stroke-width:1.75;"
             d="M 417.96 252.137368  L 507.24 252.137368  "
             clip-path="url(#pfb1776f13f)" />
        </g>
        <g
           id="patch_7">
          <path
             id="path16631"
             style="fill:none;"
             d="M 72 352.44  L 72 47.52  " />
        </g>
        <g
           id="patch_8">
          <path
             id="path16634"
             style="fill:none;"
             d="M 518.4 352.44  L 518.4 47.52  " />
        </g>
        <g
           id="patch_9">
          <path
             id="path16637"
             style="fill:none;"
             d="M 72 352.44  L 518.4 352.44  " />
        </g>
        <g
           id="patch_10">
          <path
             id="path16640"
             style="fill:none;"
             d="M 72 47.52  L 518.4 47.52  " />
        </g>
      </g>
    </g>
    <rect
       y="356.85907"
       x="88.91275"
       height="14.013423"
       width="396.24161"
       id="rect17191"
       style="fill:#ffffff;fill-opacity:0.94117647;stroke:none;stroke-width:1;stroke-linecap:butt;stroke-linejoin:round;stroke-miterlimit:4;stroke-dasharray:none;stroke-dashoffset:0;stroke-opacity:1" />
  </g>
  <text
     xml:space="preserve"
     style="font-style:normal;font-weight:normal;font-size:32px;line-height:125%;font-family:sans-serif;text-align:center;letter-spacing:0px;word-spacing:0px;text-anchor:middle;fill:#000000;fill-opacity:1;stroke:none;stroke-width:1px;stroke-linecap:butt;stroke-linejoin:miter;stroke-opacity:1"
     x="126.19597"
     y="374.72217"
     id="text17344"
     sodipodi:linespacing="125%"><tspan
       sodipodi:role="line"
       id="tspan17346"
       style="font-style:normal;font-variant:normal;font-weight:normal;font-stretch:normal;font-size:14px;font-family:Palatino;-inkscape-font-specification:Palatino;stroke-linecap:butt;stroke-linejoin:round"
       x="126.19597"
       y="374.72217">DSSP</tspan></text>
  <text
     xml:space="preserve"
     style="font-style:normal;font-weight:normal;font-size:32px;line-height:125%;font-family:sans-serif;text-align:center;letter-spacing:0px;word-spacing:0px;text-anchor:middle;fill:#000000;fill-opacity:1;stroke:none;stroke-width:1px;stroke-linecap:butt;stroke-linejoin:miter;stroke-opacity:1"
     x="239.19827"
     y="374.72217"
     id="text17348"
     sodipodi:linespacing="125%"><tspan
       sodipodi:role="line"
       id="tspan17350"
       style="font-style:normal;font-variant:normal;font-weight:normal;font-stretch:normal;font-size:14px;font-family:Palatino;-inkscape-font-specification:Palatino;stroke-linecap:butt;stroke-linejoin:round"
       x="239.19827"
       y="374.72217">STRIDE</tspan></text>
  <text
     xml:space="preserve"
     style="font-style:normal;font-weight:normal;font-size:32px;line-height:125%;font-family:sans-serif;text-align:center;letter-spacing:0px;word-spacing:0px;text-anchor:middle;fill:#000000;fill-opacity:1;stroke:none;stroke-width:1px;stroke-linecap:butt;stroke-linejoin:miter;stroke-opacity:1"
     x="350.26926"
     y="374.72217"
     id="text17352"
     sodipodi:linespacing="125%"><tspan
       sodipodi:role="line"
       id="tspan17354"
       style="font-style:normal;font-variant:normal;font-weight:normal;font-stretch:normal;font-size:14px;font-family:Palatino;-inkscape-font-specification:Palatino;stroke-linecap:butt;stroke-linejoin:round"
       x="350.26926"
       y="374.72217">KAKSI</tspan></text>
  <text
     xml:space="preserve"
     style="font-style:normal;font-weight:normal;font-size:32px;line-height:125%;font-family:sans-serif;text-align:center;letter-spacing:0px;word-spacing:0px;text-anchor:middle;fill:#000000;fill-opacity:1;stroke:none;stroke-width:1px;stroke-linecap:butt;stroke-linejoin:miter;stroke-opacity:1"
     x="461.68057"
     y="374.72217"
     id="text17356"
     sodipodi:linespacing="125%"><tspan
       sodipodi:role="line"
       id="tspan17358"
       style="font-style:normal;font-variant:normal;font-weight:normal;font-stretch:normal;font-size:14px;font-family:Palatino;-inkscape-font-specification:Palatino;stroke-linecap:butt;stroke-linejoin:round"
       x="461.68057"
       y="374.72217">PROSS</tspan></text>
</svg>
