<?xml version="1.0" encoding="UTF-8" standalone="no"?>
<!-- Created with matplotlib (http://matplotlib.org/) -->

<svg
   xmlns:dc="http://purl.org/dc/elements/1.1/"
   xmlns:cc="http://creativecommons.org/ns#"
   xmlns:rdf="http://www.w3.org/1999/02/22-rdf-syntax-ns#"
   xmlns:svg="http://www.w3.org/2000/svg"
   xmlns="http://www.w3.org/2000/svg"
   xmlns:xlink="http://www.w3.org/1999/xlink"
   xmlns:sodipodi="http://sodipodi.sourceforge.net/DTD/sodipodi-0.dtd"
   xmlns:inkscape="http://www.inkscape.org/namespaces/inkscape"
   height="396pt"
   version="1.1"
   viewBox="0 0 576 396"
   width="576pt"
   id="svg17646"
   inkscape:version="0.91 r13725"
   sodipodi:docname="atribuicao_len_ss_E.svg">
  <metadata
     id="metadata17876">
    <rdf:RDF>
      <cc:Work
         rdf:about="">
        <dc:format>image/svg+xml</dc:format>
        <dc:type
           rdf:resource="http://purl.org/dc/dcmitype/StillImage" />
        <dc:title></dc:title>
      </cc:Work>
    </rdf:RDF>
  </metadata>
  <sodipodi:namedview
     pagecolor="#ffffff"
     bordercolor="#666666"
     borderopacity="1"
     objecttolerance="10"
     gridtolerance="10"
     guidetolerance="10"
     inkscape:pageopacity="0"
     inkscape:pageshadow="2"
     inkscape:window-width="1873"
     inkscape:window-height="1056"
     id="namedview17874"
     showgrid="false"
     inkscape:zoom="1.1706546"
     inkscape:cx="235.86201"
     inkscape:cy="247.5"
     inkscape:window-x="47"
     inkscape:window-y="24"
     inkscape:window-maximized="1"
     inkscape:current-layer="svg17646" />
  <defs
     id="defs17648">
    <style
       type="text/css"
       id="style17650">
*{stroke-linecap:butt;stroke-linejoin:round;}
  </style>
  </defs>
  <defs
     id="defs17869">
    <clipPath
       id="p07207e3007">
      <rect
         height="304.92"
         width="446.4"
         x="72"
         y="47.52"
         id="rect17872" />
    </clipPath>
  </defs>
  <g
     id="g18420">
    <g
       id="figure_1">
      <g
         id="patch_1">
        <path
           id="path17654"
           style="fill:#ffffff;"
           d="M 0 396  L 576 396  L 576 0  L 0 0  z " />
      </g>
      <g
         id="axes_1">
        <g
           id="patch_2">
          <path
             id="path17658"
             style="fill:#eaeaf2;"
             d="M 72 352.44  L 518.4 352.44  L 518.4 47.52  L 72 47.52  z " />
        </g>
        <g
           id="matplotlib.axis_1">
          <g
             id="xtick_1">
            <g
               id="line2d_1" />
            <g
               id="text_1">
              <!-- 0 -->
              <defs
                 id="defs17664">
                <path
                   id="LiberationSans-30"
                   d="M 51.703125 34.421875  Q 51.703125 24.515625 49.828125 17.75  Q 47.953125 10.984375 44.703125 6.8125  Q 41.453125 2.640625 37.0625 0.828125  Q 32.671875 -0.984375 27.6875 -0.984375  Q 22.65625 -0.984375 18.3125 0.828125  Q 13.96875 2.640625 10.765625 6.78125  Q 7.5625 10.9375 5.734375 17.703125  Q 3.90625 24.46875 3.90625 34.421875  Q 3.90625 44.828125 5.734375 51.640625  Q 7.5625 58.453125 10.78125 62.5  Q 14.015625 66.546875 18.40625 68.1875  Q 22.796875 69.828125 27.984375 69.828125  Q 32.90625 69.828125 37.21875 68.1875  Q 41.546875 66.546875 44.765625 62.5  Q 48 58.453125 49.84375 51.640625  Q 51.703125 44.828125 51.703125 34.421875  z M 42.78125 34.421875  Q 42.78125 42.625 41.796875 48.0625  Q 40.828125 53.515625 38.921875 56.765625  Q 37.015625 60.015625 34.25 61.359375  Q 31.5 62.703125 27.984375 62.703125  Q 24.265625 62.703125 21.4375 61.328125  Q 18.609375 59.96875 16.671875 56.71875  Q 14.75 53.46875 13.765625 48.015625  Q 12.796875 42.578125 12.796875 34.421875  Q 12.796875 26.515625 13.796875 21.09375  Q 14.796875 15.671875 16.71875 12.375  Q 18.65625 9.078125 21.4375 7.640625  Q 24.21875 6.203125 27.78125 6.203125  Q 31.25 6.203125 34.03125 7.640625  Q 36.8125 9.078125 38.734375 12.375  Q 40.671875 15.671875 41.71875 21.09375  Q 42.78125 26.515625 42.78125 34.421875  z " />
              </defs>
              <g
                 id="g17667"
                 transform="translate(125.019531 366.686875)scale(0.1 -0.1)"
                 style="fill:#262626;">
                <use
                   id="use17669"
                   xlink:href="#LiberationSans-30" />
              </g>
            </g>
          </g>
          <g
             id="xtick_2">
            <g
               id="line2d_2" />
            <g
               id="text_2">
              <!-- 1 -->
              <defs
                 id="defs17674">
                <path
                   id="LiberationSans-31"
                   d="M 7.625 0  L 7.625 7.46875  L 25.140625 7.46875  L 25.140625 60.40625  L 9.625 49.3125  L 9.625 57.625  L 25.875 68.796875  L 33.984375 68.796875  L 33.984375 7.46875  L 50.734375 7.46875  L 50.734375 0  z " />
              </defs>
              <g
                 id="g17677"
                 transform="translate(236.619531 366.686875)scale(0.1 -0.1)"
                 style="fill:#262626;">
                <use
                   id="use17679"
                   xlink:href="#LiberationSans-31" />
              </g>
            </g>
          </g>
          <g
             id="xtick_3">
            <g
               id="line2d_3" />
            <g
               id="text_3">
              <!-- 2 -->
              <defs
                 id="defs17684">
                <path
                   id="LiberationSans-32"
                   d="M 5.03125 0  L 5.03125 6.203125  Q 7.515625 11.921875 11.109375 16.28125  Q 14.703125 20.65625 18.65625 24.1875  Q 22.609375 27.734375 26.484375 30.765625  Q 30.375 33.796875 33.5 36.8125  Q 36.625 39.84375 38.546875 43.15625  Q 40.484375 46.484375 40.484375 50.6875  Q 40.484375 53.609375 39.59375 55.828125  Q 38.71875 58.0625 37.0625 59.5625  Q 35.40625 61.078125 33.078125 61.828125  Q 30.765625 62.59375 27.9375 62.59375  Q 25.296875 62.59375 22.96875 61.859375  Q 20.65625 61.140625 18.84375 59.671875  Q 17.046875 58.203125 15.890625 56.03125  Q 14.75 53.859375 14.40625 50.984375  L 5.421875 51.8125  Q 5.859375 55.515625 7.46875 58.78125  Q 9.078125 62.0625 11.90625 64.53125  Q 14.75 67 18.71875 68.40625  Q 22.703125 69.828125 27.9375 69.828125  Q 33.0625 69.828125 37.0625 68.609375  Q 41.0625 67.390625 43.8125 64.984375  Q 46.578125 62.59375 48.046875 59.078125  Q 49.515625 55.5625 49.515625 50.984375  Q 49.515625 47.515625 48.265625 44.390625  Q 47.015625 41.265625 44.9375 38.421875  Q 42.875 35.59375 40.140625 32.953125  Q 37.40625 30.328125 34.421875 27.8125  Q 31.453125 25.296875 28.421875 22.828125  Q 25.390625 20.359375 22.71875 17.859375  Q 20.0625 15.375 17.96875 12.8125  Q 15.875 10.25 14.703125 7.46875  L 50.59375 7.46875  L 50.59375 0  z " />
              </defs>
              <g
                 id="g17687"
                 transform="translate(348.219531 366.686875)scale(0.1 -0.1)"
                 style="fill:#262626;">
                <use
                   id="use17689"
                   xlink:href="#LiberationSans-32" />
              </g>
            </g>
          </g>
          <g
             id="xtick_4">
            <g
               id="line2d_4" />
            <g
               id="text_4">
              <!-- 3 -->
              <defs
                 id="defs17694">
                <path
                   id="LiberationSans-33"
                   d="M 51.21875 19  Q 51.21875 14.265625 49.671875 10.546875  Q 48.140625 6.84375 45.1875 4.265625  Q 42.234375 1.703125 37.859375 0.359375  Q 33.5 -0.984375 27.875 -0.984375  Q 21.484375 -0.984375 17.109375 0.609375  Q 12.75 2.203125 9.90625 4.8125  Q 7.078125 7.421875 5.65625 10.765625  Q 4.25 14.109375 3.8125 17.671875  L 12.890625 18.5  Q 13.28125 15.765625 14.328125 13.515625  Q 15.375 11.28125 17.1875 9.671875  Q 19 8.0625 21.625 7.171875  Q 24.265625 6.296875 27.875 6.296875  Q 34.515625 6.296875 38.296875 9.5625  Q 42.09375 12.84375 42.09375 19.28125  Q 42.09375 23.09375 40.40625 25.40625  Q 38.71875 27.734375 36.203125 29.03125  Q 33.6875 30.328125 30.734375 30.765625  Q 27.78125 31.203125 25.296875 31.203125  L 20.3125 31.203125  L 20.3125 38.8125  L 25.09375 38.8125  Q 27.59375 38.8125 30.265625 39.328125  Q 32.953125 39.84375 35.171875 41.1875  Q 37.40625 42.53125 38.84375 44.828125  Q 40.28125 47.125 40.28125 50.6875  Q 40.28125 56.203125 37.03125 59.390625  Q 33.796875 62.59375 27.390625 62.59375  Q 21.578125 62.59375 17.984375 59.609375  Q 14.40625 56.640625 13.8125 51.21875  L 4.984375 51.90625  Q 5.515625 56.453125 7.46875 59.8125  Q 9.421875 63.1875 12.421875 65.40625  Q 15.4375 67.625 19.28125 68.71875  Q 23.140625 69.828125 27.484375 69.828125  Q 33.25 69.828125 37.390625 68.375  Q 41.546875 66.9375 44.1875 64.46875  Q 46.828125 62.015625 48.0625 58.6875  Q 49.3125 55.375 49.3125 51.609375  Q 49.3125 48.578125 48.484375 45.9375  Q 47.65625 43.3125 45.890625 41.203125  Q 44.140625 39.109375 41.421875 37.59375  Q 38.71875 36.078125 34.90625 35.296875  L 34.90625 35.109375  Q 39.0625 34.671875 42.140625 33.21875  Q 45.21875 31.78125 47.21875 29.625  Q 49.21875 27.484375 50.21875 24.75  Q 51.21875 22.015625 51.21875 19  z " />
              </defs>
              <g
                 id="g17697"
                 transform="translate(459.819531 366.686875)scale(0.1 -0.1)"
                 style="fill:#262626;">
                <use
                   id="use17699"
                   xlink:href="#LiberationSans-33" />
              </g>
            </g>
          </g>
        </g>
        <g
           id="matplotlib.axis_2">
          <g
             id="ytick_1">
            <g
               id="line2d_5">
              <path
                 id="path17704"
                 style="fill:none;stroke:#ffffff;stroke-linecap:round;"
                 d="M 72 352.44  L 518.4 352.44  "
                 clip-path="url(#p07207e3007)" />
            </g>
            <g
               id="line2d_6" />
            <g
               id="text_5">
              <!-- 0 -->
              <g
                 id="g17708"
                 transform="translate(59.439062 356.063438)scale(0.1 -0.1)"
                 style="fill:#262626;">
                <use
                   id="use17710"
                   xlink:href="#LiberationSans-30" />
              </g>
            </g>
          </g>
          <g
             id="ytick_2">
            <g
               id="line2d_7">
              <path
                 id="path17714"
                 style="fill:none;stroke:#ffffff;stroke-linecap:round;"
                 d="M 72 307.598824  L 518.4 307.598824  "
                 clip-path="url(#p07207e3007)" />
            </g>
            <g
               id="line2d_8" />
            <g
               id="text_6">
              <!-- 2 -->
              <g
                 id="g17718"
                 transform="translate(59.439062 311.222261)scale(0.1 -0.1)"
                 style="fill:#262626;">
                <use
                   id="use17720"
                   xlink:href="#LiberationSans-32" />
              </g>
            </g>
          </g>
          <g
             id="ytick_3">
            <g
               id="line2d_9">
              <path
                 id="path17724"
                 style="fill:none;stroke:#ffffff;stroke-linecap:round;"
                 d="M 72 262.757647  L 518.4 262.757647  "
                 clip-path="url(#p07207e3007)" />
            </g>
            <g
               id="line2d_10" />
            <g
               id="text_7">
              <!-- 4 -->
              <defs
                 id="defs17728">
                <path
                   id="LiberationSans-34"
                   d="M 43.015625 15.578125  L 43.015625 0  L 34.71875 0  L 34.71875 15.578125  L 2.296875 15.578125  L 2.296875 22.40625  L 33.796875 68.796875  L 43.015625 68.796875  L 43.015625 22.515625  L 52.6875 22.515625  L 52.6875 15.578125  z M 34.71875 58.890625  Q 34.625 58.640625 34.234375 57.9375  Q 33.84375 57.234375 33.34375 56.34375  Q 32.859375 55.46875 32.34375 54.5625  Q 31.84375 53.65625 31.453125 53.078125  L 13.8125 27.09375  Q 13.578125 26.703125 13.109375 26.0625  Q 12.640625 25.4375 12.15625 24.78125  Q 11.671875 24.125 11.171875 23.484375  Q 10.6875 22.859375 10.40625 22.515625  L 34.71875 22.515625  z " />
              </defs>
              <g
                 id="g17731"
                 transform="translate(59.439062 266.381085)scale(0.1 -0.1)"
                 style="fill:#262626;">
                <use
                   id="use17733"
                   xlink:href="#LiberationSans-34" />
              </g>
            </g>
          </g>
          <g
             id="ytick_4">
            <g
               id="line2d_11">
              <path
                 id="path17737"
                 style="fill:none;stroke:#ffffff;stroke-linecap:round;"
                 d="M 72 217.916471  L 518.4 217.916471  "
                 clip-path="url(#p07207e3007)" />
            </g>
            <g
               id="line2d_12" />
            <g
               id="text_8">
              <!-- 6 -->
              <defs
                 id="defs17741">
                <path
                   id="LiberationSans-36"
                   d="M 51.21875 22.515625  Q 51.21875 17.328125 49.78125 13  Q 48.34375 8.6875 45.53125 5.578125  Q 42.71875 2.484375 38.5625 0.75  Q 34.421875 -0.984375 29 -0.984375  Q 23 -0.984375 18.5 1.3125  Q 14.015625 3.609375 11.03125 7.921875  Q 8.0625 12.25 6.5625 18.53125  Q 5.078125 24.8125 5.078125 32.8125  Q 5.078125 42 6.765625 48.921875  Q 8.453125 55.859375 11.625 60.5  Q 14.796875 65.140625 19.359375 67.484375  Q 23.921875 69.828125 29.6875 69.828125  Q 33.203125 69.828125 36.28125 69.09375  Q 39.359375 68.359375 41.875 66.71875  Q 44.390625 65.09375 46.28125 62.40625  Q 48.1875 59.71875 49.3125 55.8125  L 40.921875 54.296875  Q 39.546875 58.734375 36.546875 60.71875  Q 33.546875 62.703125 29.59375 62.703125  Q 25.984375 62.703125 23.046875 60.984375  Q 20.125 59.28125 18.0625 55.875  Q 16.015625 52.484375 14.90625 47.359375  Q 13.8125 42.234375 13.8125 35.40625  Q 16.21875 39.84375 20.5625 42.15625  Q 24.90625 44.484375 30.515625 44.484375  Q 35.203125 44.484375 39.015625 42.96875  Q 42.828125 41.453125 45.53125 38.59375  Q 48.25 35.75 49.734375 31.671875  Q 51.21875 27.59375 51.21875 22.515625  z M 42.28125 22.125  Q 42.28125 25.6875 41.40625 28.5625  Q 40.53125 31.453125 38.765625 33.46875  Q 37.015625 35.5 34.421875 36.59375  Q 31.84375 37.703125 28.421875 37.703125  Q 26.03125 37.703125 23.578125 36.984375  Q 21.140625 36.28125 19.15625 34.6875  Q 17.1875 33.109375 15.9375 30.515625  Q 14.703125 27.9375 14.703125 24.21875  Q 14.703125 20.40625 15.671875 17.109375  Q 16.65625 13.8125 18.484375 11.375  Q 20.3125 8.9375 22.890625 7.515625  Q 25.484375 6.109375 28.71875 6.109375  Q 31.890625 6.109375 34.40625 7.203125  Q 36.921875 8.296875 38.671875 10.375  Q 40.4375 12.453125 41.359375 15.421875  Q 42.28125 18.40625 42.28125 22.125  z " />
              </defs>
              <g
                 id="g17744"
                 transform="translate(59.439062 221.539908)scale(0.1 -0.1)"
                 style="fill:#262626;">
                <use
                   id="use17746"
                   xlink:href="#LiberationSans-36" />
              </g>
            </g>
          </g>
          <g
             id="ytick_5">
            <g
               id="line2d_13">
              <path
                 id="path17750"
                 style="fill:none;stroke:#ffffff;stroke-linecap:round;"
                 d="M 72 173.075294  L 518.4 173.075294  "
                 clip-path="url(#p07207e3007)" />
            </g>
            <g
               id="line2d_14" />
            <g
               id="text_9">
              <!-- 8 -->
              <defs
                 id="defs17754">
                <path
                   id="LiberationSans-38"
                   d="M 51.265625 19.1875  Q 51.265625 14.796875 49.875 11.109375  Q 48.484375 7.421875 45.625 4.734375  Q 42.78125 2.046875 38.328125 0.53125  Q 33.890625 -0.984375 27.828125 -0.984375  Q 21.78125 -0.984375 17.359375 0.53125  Q 12.9375 2.046875 10.03125 4.703125  Q 7.125 7.375 5.734375 11.0625  Q 4.34375 14.75 4.34375 19.09375  Q 4.34375 22.859375 5.484375 25.78125  Q 6.640625 28.71875 8.5625 30.828125  Q 10.5 32.953125 12.96875 34.25  Q 15.4375 35.546875 18.0625 35.984375  L 18.0625 36.1875  Q 15.1875 36.859375 12.90625 38.375  Q 10.640625 39.890625 9.09375 42.015625  Q 7.5625 44.140625 6.75 46.71875  Q 5.953125 49.3125 5.953125 52.203125  Q 5.953125 55.8125 7.34375 59  Q 8.734375 62.203125 11.46875 64.625  Q 14.203125 67.046875 18.25 68.4375  Q 22.3125 69.828125 27.640625 69.828125  Q 33.25 69.828125 37.375 68.40625  Q 41.5 67 44.203125 64.578125  Q 46.921875 62.15625 48.234375 58.9375  Q 49.5625 55.71875 49.5625 52.09375  Q 49.5625 49.265625 48.75 46.671875  Q 47.953125 44.09375 46.40625 41.96875  Q 44.875 39.84375 42.59375 38.34375  Q 40.328125 36.859375 37.359375 36.28125  L 37.359375 36.078125  Q 40.328125 35.59375 42.859375 34.296875  Q 45.40625 33.015625 47.265625 30.890625  Q 49.125 28.765625 50.1875 25.828125  Q 51.265625 22.90625 51.265625 19.1875  z M 40.4375 51.609375  Q 40.4375 54.203125 39.765625 56.34375  Q 39.109375 58.5 37.59375 60.03125  Q 36.078125 61.578125 33.640625 62.421875  Q 31.203125 63.28125 27.640625 63.28125  Q 24.171875 63.28125 21.78125 62.421875  Q 19.390625 61.578125 17.84375 60.03125  Q 16.3125 58.5 15.625 56.34375  Q 14.9375 54.203125 14.9375 51.609375  Q 14.9375 49.5625 15.46875 47.40625  Q 16.015625 45.265625 17.421875 43.5  Q 18.84375 41.75 21.328125 40.625  Q 23.828125 39.5 27.734375 39.5  Q 31.890625 39.5 34.40625 40.625  Q 36.921875 41.75 38.25 43.5  Q 39.59375 45.265625 40.015625 47.40625  Q 40.4375 49.5625 40.4375 51.609375  z M 42.140625 20.015625  Q 42.140625 22.515625 41.453125 24.828125  Q 40.765625 27.15625 39.109375 28.9375  Q 37.453125 30.71875 34.640625 31.8125  Q 31.84375 32.90625 27.640625 32.90625  Q 23.78125 32.90625 21.0625 31.8125  Q 18.359375 30.71875 16.671875 28.90625  Q 14.984375 27.09375 14.203125 24.71875  Q 13.421875 22.359375 13.421875 19.828125  Q 13.421875 16.65625 14.203125 14.03125  Q 14.984375 11.421875 16.6875 9.546875  Q 18.40625 7.671875 21.1875 6.640625  Q 23.96875 5.609375 27.9375 5.609375  Q 31.9375 5.609375 34.671875 6.640625  Q 37.40625 7.671875 39.0625 9.546875  Q 40.71875 11.421875 41.421875 14.078125  Q 42.140625 16.75 42.140625 20.015625  z " />
              </defs>
              <g
                 id="g17757"
                 transform="translate(59.439062 176.698732)scale(0.1 -0.1)"
                 style="fill:#262626;">
                <use
                   id="use17759"
                   xlink:href="#LiberationSans-38" />
              </g>
            </g>
          </g>
          <g
             id="ytick_6">
            <g
               id="line2d_15">
              <path
                 id="path17763"
                 style="fill:none;stroke:#ffffff;stroke-linecap:round;"
                 d="M 72 128.234118  L 518.4 128.234118  "
                 clip-path="url(#p07207e3007)" />
            </g>
            <g
               id="line2d_16" />
            <g
               id="text_10">
              <!-- 10 -->
              <g
                 id="g17767"
                 transform="translate(53.878125 131.857555)scale(0.1 -0.1)"
                 style="fill:#262626;">
                <use
                   id="use17769"
                   xlink:href="#LiberationSans-31" />
                <use
                   id="use17771"
                   xlink:href="#LiberationSans-30"
                   x="55.615234" />
              </g>
            </g>
          </g>
          <g
             id="ytick_7">
            <g
               id="line2d_17">
              <path
                 id="path17775"
                 style="fill:none;stroke:#ffffff;stroke-linecap:round;"
                 d="M 72 83.392941  L 518.4 83.392941  "
                 clip-path="url(#p07207e3007)" />
            </g>
            <g
               id="line2d_18" />
            <g
               id="text_11">
              <!-- 12 -->
              <g
                 id="g17779"
                 transform="translate(53.878125 87.016379)scale(0.1 -0.1)"
                 style="fill:#262626;">
                <use
                   id="use17781"
                   xlink:href="#LiberationSans-31" />
                <use
                   id="use17783"
                   xlink:href="#LiberationSans-32"
                   x="55.615234" />
              </g>
            </g>
          </g>
        </g>
        <g
           id="patch_3">
          <path
             id="path17786"
             style="fill:#597dbe;stroke:#545454;stroke-linejoin:miter;stroke-width:1.75;"
             d="M 83.16 285.178235  L 172.44 285.178235  L 172.44 195.495882  L 83.16 195.495882  L 83.16 285.178235  z "
             clip-path="url(#p07207e3007)" />
        </g>
        <g
           id="patch_4">
          <path
             id="path17789"
             style="fill:#76bf72;stroke:#545454;stroke-linejoin:miter;stroke-width:1.75;"
             d="M 194.76 285.178235  L 284.04 285.178235  L 284.04 195.495882  L 194.76 195.495882  L 194.76 285.178235  z "
             clip-path="url(#p07207e3007)" />
        </g>
        <g
           id="patch_5">
          <path
             id="path17792"
             style="fill:#c76e6e;stroke:#545454;stroke-linejoin:miter;stroke-width:1.75;"
             d="M 306.36 262.757647  L 395.64 262.757647  L 395.64 195.495882  L 306.36 195.495882  L 306.36 262.757647  z "
             clip-path="url(#p07207e3007)" />
        </g>
        <g
           id="patch_6">
          <path
             id="path17795"
             style="fill:#af85be;stroke:#545454;stroke-linejoin:miter;stroke-width:1.75;"
             d="M 417.96 285.178235  L 507.24 285.178235  L 507.24 217.916471  L 417.96 217.916471  L 417.96 285.178235  z "
             clip-path="url(#p07207e3007)" />
        </g>
        <g
           id="line2d_19">
          <path
             id="path17798"
             style="fill:none;stroke:#545454;stroke-linecap:round;stroke-width:1.75;"
             d="M 127.8 285.178235  L 127.8 330.019412  "
             clip-path="url(#p07207e3007)" />
        </g>
        <g
           id="line2d_20">
          <path
             id="path17801"
             style="fill:none;stroke:#545454;stroke-linecap:round;stroke-width:1.75;"
             d="M 127.8 195.495882  L 127.8 60.972353  "
             clip-path="url(#p07207e3007)" />
        </g>
        <g
           id="line2d_21">
          <path
             id="path17804"
             style="fill:none;stroke:#545454;stroke-linecap:round;stroke-width:1.75;"
             d="M 105.48 330.019412  L 150.12 330.019412  "
             clip-path="url(#p07207e3007)" />
        </g>
        <g
           id="line2d_22">
          <path
             id="path17807"
             style="fill:none;stroke:#545454;stroke-linecap:round;stroke-width:1.75;"
             d="M 105.48 60.972353  L 150.12 60.972353  "
             clip-path="url(#p07207e3007)" />
        </g>
        <g
           id="line2d_23">
          <path
             id="path17810"
             style="fill:none;stroke:#545454;stroke-linecap:round;stroke-width:1.75;"
             d="M 239.4 285.178235  L 239.4 330.019412  "
             clip-path="url(#p07207e3007)" />
        </g>
        <g
           id="line2d_24">
          <path
             id="path17813"
             style="fill:none;stroke:#545454;stroke-linecap:round;stroke-width:1.75;"
             d="M 239.4 195.495882  L 239.4 60.972353  "
             clip-path="url(#p07207e3007)" />
        </g>
        <g
           id="line2d_25">
          <path
             id="path17816"
             style="fill:none;stroke:#545454;stroke-linecap:round;stroke-width:1.75;"
             d="M 217.08 330.019412  L 261.72 330.019412  "
             clip-path="url(#p07207e3007)" />
        </g>
        <g
           id="line2d_26">
          <path
             id="path17819"
             style="fill:none;stroke:#545454;stroke-linecap:round;stroke-width:1.75;"
             d="M 217.08 60.972353  L 261.72 60.972353  "
             clip-path="url(#p07207e3007)" />
        </g>
        <g
           id="line2d_27">
          <path
             id="path17822"
             style="fill:none;stroke:#545454;stroke-linecap:round;stroke-width:1.75;"
             d="M 351 262.757647  L 351 330.019412  "
             clip-path="url(#p07207e3007)" />
        </g>
        <g
           id="line2d_28">
          <path
             id="path17825"
             style="fill:none;stroke:#545454;stroke-linecap:round;stroke-width:1.75;"
             d="M 351 195.495882  L 351 105.813529  "
             clip-path="url(#p07207e3007)" />
        </g>
        <g
           id="line2d_29">
          <path
             id="path17828"
             style="fill:none;stroke:#545454;stroke-linecap:round;stroke-width:1.75;"
             d="M 328.68 330.019412  L 373.32 330.019412  "
             clip-path="url(#p07207e3007)" />
        </g>
        <g
           id="line2d_30">
          <path
             id="path17831"
             style="fill:none;stroke:#545454;stroke-linecap:round;stroke-width:1.75;"
             d="M 328.68 105.813529  L 373.32 105.813529  "
             clip-path="url(#p07207e3007)" />
        </g>
        <g
           id="line2d_31">
          <path
             id="path17834"
             style="fill:none;stroke:#545454;stroke-linecap:round;stroke-width:1.75;"
             d="M 462.6 285.178235  L 462.6 330.019412  "
             clip-path="url(#p07207e3007)" />
        </g>
        <g
           id="line2d_32">
          <path
             id="path17837"
             style="fill:none;stroke:#545454;stroke-linecap:round;stroke-width:1.75;"
             d="M 462.6 217.916471  L 462.6 128.234118  "
             clip-path="url(#p07207e3007)" />
        </g>
        <g
           id="line2d_33">
          <path
             id="path17840"
             style="fill:none;stroke:#545454;stroke-linecap:round;stroke-width:1.75;"
             d="M 440.28 330.019412  L 484.92 330.019412  "
             clip-path="url(#p07207e3007)" />
        </g>
        <g
           id="line2d_34">
          <path
             id="path17843"
             style="fill:none;stroke:#545454;stroke-linecap:round;stroke-width:1.75;"
             d="M 440.28 128.234118  L 484.92 128.234118  "
             clip-path="url(#p07207e3007)" />
        </g>
        <g
           id="line2d_35">
          <path
             id="path17846"
             style="fill:none;stroke:#545454;stroke-linecap:round;stroke-width:1.75;"
             d="M 83.16 240.337059  L 172.44 240.337059  "
             clip-path="url(#p07207e3007)" />
        </g>
        <g
           id="line2d_36">
          <path
             id="path17849"
             style="fill:none;stroke:#545454;stroke-linecap:round;stroke-width:1.75;"
             d="M 194.76 240.337059  L 284.04 240.337059  "
             clip-path="url(#p07207e3007)" />
        </g>
        <g
           id="line2d_37">
          <path
             id="path17852"
             style="fill:none;stroke:#545454;stroke-linecap:round;stroke-width:1.75;"
             d="M 306.36 240.337059  L 395.64 240.337059  "
             clip-path="url(#p07207e3007)" />
        </g>
        <g
           id="line2d_38">
          <path
             id="path17855"
             style="fill:none;stroke:#545454;stroke-linecap:round;stroke-width:1.75;"
             d="M 417.96 240.337059  L 507.24 240.337059  "
             clip-path="url(#p07207e3007)" />
        </g>
        <g
           id="patch_7">
          <path
             id="path17858"
             style="fill:none;"
             d="M 72 352.44  L 72 47.52  " />
        </g>
        <g
           id="patch_8">
          <path
             id="path17861"
             style="fill:none;"
             d="M 518.4 352.44  L 518.4 47.52  " />
        </g>
        <g
           id="patch_9">
          <path
             id="path17864"
             style="fill:none;"
             d="M 72 352.44  L 518.4 352.44  " />
        </g>
        <g
           id="patch_10">
          <path
             id="path17867"
             style="fill:none;"
             d="M 72 47.52  L 518.4 47.52  " />
        </g>
      </g>
    </g>
    <rect
       y="357.7308"
       x="85.422295"
       height="10.250675"
       width="412.07715"
       id="rect18418"
       style="fill:#ffffff;fill-opacity:0.94117647;stroke:none;stroke-width:1;stroke-linecap:butt;stroke-linejoin:round;stroke-miterlimit:4;stroke-dasharray:none;stroke-dashoffset:0;stroke-opacity:1" />
  </g>
  <text
     xml:space="preserve"
     style="font-style:normal;font-weight:normal;font-size:32px;line-height:125%;font-family:sans-serif;text-align:center;letter-spacing:0px;word-spacing:0px;text-anchor:middle;fill:#000000;fill-opacity:1;stroke:none;stroke-width:1px;stroke-linecap:butt;stroke-linejoin:miter;stroke-opacity:1"
     x="126.75925"
     y="376.90475"
     id="text17344"
     sodipodi:linespacing="125%"><tspan
       sodipodi:role="line"
       id="tspan17346"
       style="font-style:normal;font-variant:normal;font-weight:normal;font-stretch:normal;font-size:14px;font-family:Palatino;-inkscape-font-specification:Palatino;stroke-linecap:butt;stroke-linejoin:round"
       x="126.75925"
       y="376.90475">DSSP</tspan></text>
  <text
     xml:space="preserve"
     style="font-style:normal;font-weight:normal;font-size:32px;line-height:125%;font-family:sans-serif;text-align:center;letter-spacing:0px;word-spacing:0px;text-anchor:middle;fill:#000000;fill-opacity:1;stroke:none;stroke-width:1px;stroke-linecap:butt;stroke-linejoin:miter;stroke-opacity:1"
     x="239.76201"
     y="376.90475"
     id="text17348"
     sodipodi:linespacing="125%"><tspan
       sodipodi:role="line"
       id="tspan17350"
       style="font-style:normal;font-variant:normal;font-weight:normal;font-stretch:normal;font-size:14px;font-family:Palatino;-inkscape-font-specification:Palatino;stroke-linecap:butt;stroke-linejoin:round"
       x="239.76201"
       y="376.90475">STRIDE</tspan></text>
  <text
     xml:space="preserve"
     style="font-style:normal;font-weight:normal;font-size:32px;line-height:125%;font-family:sans-serif;text-align:center;letter-spacing:0px;word-spacing:0px;text-anchor:middle;fill:#000000;fill-opacity:1;stroke:none;stroke-width:1px;stroke-linecap:butt;stroke-linejoin:miter;stroke-opacity:1"
     x="350.83328"
     y="376.90475"
     id="text17352"
     sodipodi:linespacing="125%"><tspan
       sodipodi:role="line"
       id="tspan17354"
       style="font-style:normal;font-variant:normal;font-weight:normal;font-stretch:normal;font-size:14px;font-family:Palatino;-inkscape-font-specification:Palatino;stroke-linecap:butt;stroke-linejoin:round"
       x="350.83328"
       y="376.90475">KAKSI</tspan></text>
  <text
     xml:space="preserve"
     style="font-style:normal;font-weight:normal;font-size:32px;line-height:125%;font-family:sans-serif;text-align:center;letter-spacing:0px;word-spacing:0px;text-anchor:middle;fill:#000000;fill-opacity:1;stroke:none;stroke-width:1px;stroke-linecap:butt;stroke-linejoin:miter;stroke-opacity:1"
     x="462.2446"
     y="376.90475"
     id="text17356"
     sodipodi:linespacing="125%"><tspan
       sodipodi:role="line"
       id="tspan17358"
       style="font-style:normal;font-variant:normal;font-weight:normal;font-stretch:normal;font-size:14px;font-family:Palatino;-inkscape-font-specification:Palatino;stroke-linecap:butt;stroke-linejoin:round"
       x="462.2446"
       y="376.90475">PROSS</tspan></text>
</svg>
