<?xml version="1.0" encoding="UTF-8" standalone="no"?>
<!-- Created with matplotlib (http://matplotlib.org/) -->

<svg
   xmlns:dc="http://purl.org/dc/elements/1.1/"
   xmlns:cc="http://creativecommons.org/ns#"
   xmlns:rdf="http://www.w3.org/1999/02/22-rdf-syntax-ns#"
   xmlns:svg="http://www.w3.org/2000/svg"
   xmlns="http://www.w3.org/2000/svg"
   xmlns:xlink="http://www.w3.org/1999/xlink"
   xmlns:sodipodi="http://sodipodi.sourceforge.net/DTD/sodipodi-0.dtd"
   xmlns:inkscape="http://www.inkscape.org/namespaces/inkscape"
   height="396pt"
   version="1.1"
   viewBox="0 0 576 396"
   width="576pt"
   id="svg4509"
   inkscape:version="0.91 r13725"
   sodipodi:docname="cba-treinamento.svg">
  <metadata
     id="metadata4845">
    <rdf:RDF>
      <cc:Work
         rdf:about="">
        <dc:format>image/svg+xml</dc:format>
        <dc:type
           rdf:resource="http://purl.org/dc/dcmitype/StillImage" />
        <dc:title></dc:title>
      </cc:Work>
    </rdf:RDF>
  </metadata>
  <sodipodi:namedview
     pagecolor="#ffffff"
     bordercolor="#666666"
     borderopacity="1"
     objecttolerance="10"
     gridtolerance="10"
     guidetolerance="10"
     inkscape:pageopacity="0"
     inkscape:pageshadow="2"
     inkscape:window-width="1873"
     inkscape:window-height="1056"
     id="namedview4843"
     showgrid="false"
     inkscape:zoom="1.8969697"
     inkscape:cx="360"
     inkscape:cy="247.5"
     inkscape:window-x="47"
     inkscape:window-y="24"
     inkscape:window-maximized="1"
     inkscape:current-layer="svg4509" />
  <defs
     id="defs4511">
    <style
       type="text/css"
       id="style4513">
*{stroke-linecap:butt;stroke-linejoin:round;stroke-miterlimit:100000;}
  </style>
  </defs>
  <g
     id="figure_1">
    <g
       id="patch_1">
      <path
         d="M 0 396  L 576 396  L 576 0  L 0 0  z "
         style="fill:#ffffff;"
         id="path4517" />
    </g>
    <g
       id="axes_1">
      <g
         id="patch_2">
        <path
           d="M 72 356.4  L 518.4 356.4  L 518.4 39.6  L 72 39.6  z "
           style="fill:#eaeaf2;"
           id="path4521" />
      </g>
      <g
         id="matplotlib.axis_1">
        <g
           id="xtick_1">
          <g
             id="line2d_1">
            <path
               clip-path="url(#pa99b8c12f4)"
               d="M 72 356.4  L 72 39.6  "
               style="fill:none;stroke:#ffffff;stroke-linecap:round;"
               id="path4526" />
          </g>
          <g
             id="line2d_2">
            <defs
               id="defs4529">
              <path
                 d="M 0 0  L 0 0  "
                 id="m831cb175f1"
                 style="stroke:#262626;" />
            </defs>
            <g
               id="g4532">
              <use
                 style="fill:#262626;stroke:#262626;"
                 x="72.0"
                 xlink:href="#m831cb175f1"
                 y="356.4"
                 id="use4534" />
            </g>
          </g>
          <g
             id="line2d_3">
            <g
               id="g4537">
              <use
                 style="fill:#262626;stroke:#262626;"
                 x="72.0"
                 xlink:href="#m831cb175f1"
                 y="39.6"
                 id="use4539" />
            </g>
          </g>
          <g
             id="text_1">
            <!-- 0 -->
            <defs
               id="defs4542">
              <path
                 d="M 4.15625 35.296875  Q 4.15625 48 6.765625 55.734375  Q 9.375 63.484375 14.515625 67.671875  Q 19.671875 71.875 27.484375 71.875  Q 33.25 71.875 37.59375 69.546875  Q 41.9375 67.234375 44.765625 62.859375  Q 47.609375 58.5 49.21875 52.21875  Q 50.828125 45.953125 50.828125 35.296875  Q 50.828125 22.703125 48.234375 14.96875  Q 45.65625 7.234375 40.5 3  Q 35.359375 -1.21875 27.484375 -1.21875  Q 17.140625 -1.21875 11.234375 6.203125  Q 4.15625 15.140625 4.15625 35.296875  M 13.1875 35.296875  Q 13.1875 17.671875 17.3125 11.828125  Q 21.4375 6 27.484375 6  Q 33.546875 6 37.671875 11.859375  Q 41.796875 17.71875 41.796875 35.296875  Q 41.796875 52.984375 37.671875 58.78125  Q 33.546875 64.59375 27.390625 64.59375  Q 21.34375 64.59375 17.71875 59.46875  Q 13.1875 52.9375 13.1875 35.296875  "
                 id="ArialMT-30" />
            </defs>
            <g
               style="fill:#262626;"
               transform="translate(69.21953125 370.5578125)scale(0.1 -0.1)"
               id="g4545">
              <use
                 xlink:href="#ArialMT-30"
                 id="use4547" />
            </g>
          </g>
        </g>
        <g
           id="xtick_2">
          <g
             id="line2d_4">
            <path
               clip-path="url(#pa99b8c12f4)"
               d="M 161.28 356.4  L 161.28 39.6  "
               style="fill:none;stroke:#ffffff;stroke-linecap:round;"
               id="path4551" />
          </g>
          <g
             id="line2d_5">
            <g
               id="g4554">
              <use
                 style="fill:#262626;stroke:#262626;"
                 x="161.28"
                 xlink:href="#m831cb175f1"
                 y="356.4"
                 id="use4556" />
            </g>
          </g>
          <g
             id="line2d_6">
            <g
               id="g4559">
              <use
                 style="fill:#262626;stroke:#262626;"
                 x="161.28"
                 xlink:href="#m831cb175f1"
                 y="39.6"
                 id="use4561" />
            </g>
          </g>
          <g
             id="text_2">
            <!-- 200 -->
            <defs
               id="defs4564">
              <path
                 d="M 50.34375 8.453125  L 50.34375 0  L 3.03125 0  Q 2.9375 3.171875 4.046875 6.109375  Q 5.859375 10.9375 9.828125 15.625  Q 13.8125 20.3125 21.34375 26.46875  Q 33.015625 36.03125 37.109375 41.625  Q 41.21875 47.21875 41.21875 52.203125  Q 41.21875 57.421875 37.46875 61  Q 33.734375 64.59375 27.734375 64.59375  Q 21.390625 64.59375 17.578125 60.78125  Q 13.765625 56.984375 13.71875 50.25  L 4.6875 51.171875  Q 5.609375 61.28125 11.65625 66.578125  Q 17.71875 71.875 27.9375 71.875  Q 38.234375 71.875 44.234375 66.15625  Q 50.25 60.453125 50.25 52  Q 50.25 47.703125 48.484375 43.546875  Q 46.734375 39.40625 42.65625 34.8125  Q 38.578125 30.21875 29.109375 22.21875  Q 21.1875 15.578125 18.9375 13.203125  Q 16.703125 10.84375 15.234375 8.453125  z "
                 id="ArialMT-32" />
            </defs>
            <g
               style="fill:#262626;"
               transform="translate(152.93859375 370.5578125)scale(0.1 -0.1)"
               id="g4567">
              <use
                 xlink:href="#ArialMT-32"
                 id="use4569" />
              <use
                 x="55.615234375"
                 xlink:href="#ArialMT-30"
                 id="use4571" />
              <use
                 x="111.23046875"
                 xlink:href="#ArialMT-30"
                 id="use4573" />
            </g>
          </g>
        </g>
        <g
           id="xtick_3">
          <g
             id="line2d_7">
            <path
               clip-path="url(#pa99b8c12f4)"
               d="M 250.56 356.4  L 250.56 39.6  "
               style="fill:none;stroke:#ffffff;stroke-linecap:round;"
               id="path4577" />
          </g>
          <g
             id="line2d_8">
            <g
               id="g4580">
              <use
                 style="fill:#262626;stroke:#262626;"
                 x="250.56"
                 xlink:href="#m831cb175f1"
                 y="356.4"
                 id="use4582" />
            </g>
          </g>
          <g
             id="line2d_9">
            <g
               id="g4585">
              <use
                 style="fill:#262626;stroke:#262626;"
                 x="250.56"
                 xlink:href="#m831cb175f1"
                 y="39.6"
                 id="use4587" />
            </g>
          </g>
          <g
             id="text_3">
            <!-- 400 -->
            <defs
               id="defs4590">
              <path
                 d="M 32.328125 0  L 32.328125 17.140625  L 1.265625 17.140625  L 1.265625 25.203125  L 33.9375 71.578125  L 41.109375 71.578125  L 41.109375 25.203125  L 50.78125 25.203125  L 50.78125 17.140625  L 41.109375 17.140625  L 41.109375 0  z M 32.328125 25.203125  L 32.328125 57.46875  L 9.90625 25.203125  z "
                 id="ArialMT-34" />
            </defs>
            <g
               style="fill:#262626;"
               transform="translate(242.21859375 370.5578125)scale(0.1 -0.1)"
               id="g4593">
              <use
                 xlink:href="#ArialMT-34"
                 id="use4595" />
              <use
                 x="55.615234375"
                 xlink:href="#ArialMT-30"
                 id="use4597" />
              <use
                 x="111.23046875"
                 xlink:href="#ArialMT-30"
                 id="use4599" />
            </g>
          </g>
        </g>
        <g
           id="xtick_4">
          <g
             id="line2d_10">
            <path
               clip-path="url(#pa99b8c12f4)"
               d="M 339.84 356.4  L 339.84 39.6  "
               style="fill:none;stroke:#ffffff;stroke-linecap:round;"
               id="path4603" />
          </g>
          <g
             id="line2d_11">
            <g
               id="g4606">
              <use
                 style="fill:#262626;stroke:#262626;"
                 x="339.84"
                 xlink:href="#m831cb175f1"
                 y="356.4"
                 id="use4608" />
            </g>
          </g>
          <g
             id="line2d_12">
            <g
               id="g4611">
              <use
                 style="fill:#262626;stroke:#262626;"
                 x="339.84"
                 xlink:href="#m831cb175f1"
                 y="39.6"
                 id="use4613" />
            </g>
          </g>
          <g
             id="text_4">
            <!-- 600 -->
            <defs
               id="defs4616">
              <path
                 d="M 49.75 54.046875  L 41.015625 53.375  Q 39.84375 58.546875 37.703125 60.890625  Q 34.125 64.65625 28.90625 64.65625  Q 24.703125 64.65625 21.53125 62.3125  Q 17.390625 59.28125 14.984375 53.46875  Q 12.59375 47.65625 12.5 36.921875  Q 15.671875 41.75 20.265625 44.09375  Q 24.859375 46.4375 29.890625 46.4375  Q 38.671875 46.4375 44.84375 39.96875  Q 51.03125 33.5 51.03125 23.25  Q 51.03125 16.5 48.125 10.71875  Q 45.21875 4.9375 40.140625 1.859375  Q 35.0625 -1.21875 28.609375 -1.21875  Q 17.625 -1.21875 10.6875 6.859375  Q 3.765625 14.9375 3.765625 33.5  Q 3.765625 54.25 11.421875 63.671875  Q 18.109375 71.875 29.4375 71.875  Q 37.890625 71.875 43.28125 67.140625  Q 48.6875 62.40625 49.75 54.046875  M 13.875 23.1875  Q 13.875 18.65625 15.796875 14.5  Q 17.71875 10.359375 21.1875 8.171875  Q 24.65625 6 28.46875 6  Q 34.03125 6 38.03125 10.484375  Q 42.046875 14.984375 42.046875 22.703125  Q 42.046875 30.125 38.078125 34.390625  Q 34.125 38.671875 28.125 38.671875  Q 22.171875 38.671875 18.015625 34.390625  Q 13.875 30.125 13.875 23.1875  "
                 id="ArialMT-36" />
            </defs>
            <g
               style="fill:#262626;"
               transform="translate(331.49859375 370.5578125)scale(0.1 -0.1)"
               id="g4619">
              <use
                 xlink:href="#ArialMT-36"
                 id="use4621" />
              <use
                 x="55.615234375"
                 xlink:href="#ArialMT-30"
                 id="use4623" />
              <use
                 x="111.23046875"
                 xlink:href="#ArialMT-30"
                 id="use4625" />
            </g>
          </g>
        </g>
        <g
           id="xtick_5">
          <g
             id="line2d_13">
            <path
               clip-path="url(#pa99b8c12f4)"
               d="M 429.12 356.4  L 429.12 39.6  "
               style="fill:none;stroke:#ffffff;stroke-linecap:round;"
               id="path4629" />
          </g>
          <g
             id="line2d_14">
            <g
               id="g4632">
              <use
                 style="fill:#262626;stroke:#262626;"
                 x="429.12"
                 xlink:href="#m831cb175f1"
                 y="356.4"
                 id="use4634" />
            </g>
          </g>
          <g
             id="line2d_15">
            <g
               id="g4637">
              <use
                 style="fill:#262626;stroke:#262626;"
                 x="429.12"
                 xlink:href="#m831cb175f1"
                 y="39.6"
                 id="use4639" />
            </g>
          </g>
          <g
             id="text_5">
            <!-- 800 -->
            <defs
               id="defs4642">
              <path
                 d="M 17.671875 38.8125  Q 12.203125 40.828125 9.5625 44.53125  Q 6.9375 48.25 6.9375 53.421875  Q 6.9375 61.234375 12.546875 66.546875  Q 18.171875 71.875 27.484375 71.875  Q 36.859375 71.875 42.578125 66.421875  Q 48.296875 60.984375 48.296875 53.171875  Q 48.296875 48.1875 45.671875 44.5  Q 43.0625 40.828125 37.75 38.8125  Q 44.34375 36.671875 47.78125 31.875  Q 51.21875 27.09375 51.21875 20.453125  Q 51.21875 11.28125 44.71875 5.03125  Q 38.234375 -1.21875 27.640625 -1.21875  Q 17.046875 -1.21875 10.546875 5.046875  Q 4.046875 11.328125 4.046875 20.703125  Q 4.046875 27.6875 7.59375 32.390625  Q 11.140625 37.109375 17.671875 38.8125  M 15.921875 53.71875  Q 15.921875 48.640625 19.1875 45.40625  Q 22.46875 42.1875 27.6875 42.1875  Q 32.765625 42.1875 36.015625 45.375  Q 39.265625 48.578125 39.265625 53.21875  Q 39.265625 58.0625 35.90625 61.359375  Q 32.5625 64.65625 27.59375 64.65625  Q 22.5625 64.65625 19.234375 61.421875  Q 15.921875 58.203125 15.921875 53.71875  M 13.09375 20.65625  Q 13.09375 16.890625 14.875 13.375  Q 16.65625 9.859375 20.171875 7.921875  Q 23.6875 6 27.734375 6  Q 34.03125 6 38.125 10.046875  Q 42.234375 14.109375 42.234375 20.359375  Q 42.234375 26.703125 38.015625 30.859375  Q 33.796875 35.015625 27.4375 35.015625  Q 21.234375 35.015625 17.15625 30.90625  Q 13.09375 26.8125 13.09375 20.65625  "
                 id="ArialMT-38" />
            </defs>
            <g
               style="fill:#262626;"
               transform="translate(420.77859375 370.5578125)scale(0.1 -0.1)"
               id="g4645">
              <use
                 xlink:href="#ArialMT-38"
                 id="use4647" />
              <use
                 x="55.615234375"
                 xlink:href="#ArialMT-30"
                 id="use4649" />
              <use
                 x="111.23046875"
                 xlink:href="#ArialMT-30"
                 id="use4651" />
            </g>
          </g>
        </g>
        <g
           id="xtick_6">
          <g
             id="line2d_16">
            <path
               clip-path="url(#pa99b8c12f4)"
               d="M 518.4 356.4  L 518.4 39.6  "
               style="fill:none;stroke:#ffffff;stroke-linecap:round;"
               id="path4655" />
          </g>
          <g
             id="line2d_17">
            <g
               id="g4658">
              <use
                 style="fill:#262626;stroke:#262626;"
                 x="518.4"
                 xlink:href="#m831cb175f1"
                 y="356.4"
                 id="use4660" />
            </g>
          </g>
          <g
             id="line2d_18">
            <g
               id="g4663">
              <use
                 style="fill:#262626;stroke:#262626;"
                 x="518.4"
                 xlink:href="#m831cb175f1"
                 y="39.6"
                 id="use4665" />
            </g>
          </g>
          <g
             id="text_6">
            <!-- 1000 -->
            <defs
               id="defs4668">
              <path
                 d="M 37.25 0  L 28.46875 0  L 28.46875 56  Q 25.296875 52.984375 20.140625 49.953125  Q 14.984375 46.921875 10.890625 45.40625  L 10.890625 53.90625  Q 18.265625 57.375 23.78125 62.296875  Q 29.296875 67.234375 31.59375 71.875  L 37.25 71.875  z "
                 id="ArialMT-31" />
            </defs>
            <g
               style="fill:#262626;"
               transform="translate(507.278125 370.5578125)scale(0.1 -0.1)"
               id="g4671">
              <use
                 xlink:href="#ArialMT-31"
                 id="use4673" />
              <use
                 x="55.615234375"
                 xlink:href="#ArialMT-30"
                 id="use4675" />
              <use
                 x="111.23046875"
                 xlink:href="#ArialMT-30"
                 id="use4677" />
              <use
                 x="166.845703125"
                 xlink:href="#ArialMT-30"
                 id="use4679" />
            </g>
          </g>
        </g>
      </g>
      <g
         id="matplotlib.axis_2">
        <g
           id="ytick_1">
          <g
             id="line2d_19">
            <path
               clip-path="url(#pa99b8c12f4)"
               d="M 72 356.4  L 518.4 356.4  "
               style="fill:none;stroke:#ffffff;stroke-linecap:round;"
               id="path4684" />
          </g>
          <g
             id="line2d_20">
            <g
               id="g4687">
              <use
                 style="fill:#262626;stroke:#262626;"
                 x="72.0"
                 xlink:href="#m831cb175f1"
                 y="356.4"
                 id="use4689" />
            </g>
          </g>
          <g
             id="line2d_21">
            <g
               id="g4692">
              <use
                 style="fill:#262626;stroke:#262626;"
                 x="518.4"
                 xlink:href="#m831cb175f1"
                 y="356.4"
                 id="use4694" />
            </g>
          </g>
          <g
             id="text_7">
            <!-- 0.0 -->
            <defs
               id="defs4697">
              <path
                 d="M 9.078125 0  L 9.078125 10.015625  L 19.09375 10.015625  L 19.09375 0  z "
                 id="ArialMT-2e" />
            </defs>
            <g
               style="fill:#262626;"
               transform="translate(51.1 358.98515625)scale(0.1 -0.1)"
               id="g4700">
              <use
                 xlink:href="#ArialMT-30"
                 id="use4702" />
              <use
                 x="55.615234375"
                 xlink:href="#ArialMT-2e"
                 id="use4704" />
              <use
                 x="83.3984375"
                 xlink:href="#ArialMT-30"
                 id="use4706" />
            </g>
          </g>
        </g>
        <g
           id="ytick_2">
          <g
             id="line2d_22">
            <path
               clip-path="url(#pa99b8c12f4)"
               d="M 72 293.04  L 518.4 293.04  "
               style="fill:none;stroke:#ffffff;stroke-linecap:round;"
               id="path4710" />
          </g>
          <g
             id="line2d_23">
            <g
               id="g4713">
              <use
                 style="fill:#262626;stroke:#262626;"
                 x="72.0"
                 xlink:href="#m831cb175f1"
                 y="293.04"
                 id="use4715" />
            </g>
          </g>
          <g
             id="line2d_24">
            <g
               id="g4718">
              <use
                 style="fill:#262626;stroke:#262626;"
                 x="518.4"
                 xlink:href="#m831cb175f1"
                 y="293.04"
                 id="use4720" />
            </g>
          </g>
          <g
             id="text_8">
            <!-- 0.2 -->
            <g
               style="fill:#262626;"
               transform="translate(51.1 295.62515625)scale(0.1 -0.1)"
               id="g4723">
              <use
                 xlink:href="#ArialMT-30"
                 id="use4725" />
              <use
                 x="55.615234375"
                 xlink:href="#ArialMT-2e"
                 id="use4727" />
              <use
                 x="83.3984375"
                 xlink:href="#ArialMT-32"
                 id="use4729" />
            </g>
          </g>
        </g>
        <g
           id="ytick_3">
          <g
             id="line2d_25">
            <path
               clip-path="url(#pa99b8c12f4)"
               d="M 72 229.68  L 518.4 229.68  "
               style="fill:none;stroke:#ffffff;stroke-linecap:round;"
               id="path4733" />
          </g>
          <g
             id="line2d_26">
            <g
               id="g4736">
              <use
                 style="fill:#262626;stroke:#262626;"
                 x="72.0"
                 xlink:href="#m831cb175f1"
                 y="229.68"
                 id="use4738" />
            </g>
          </g>
          <g
             id="line2d_27">
            <g
               id="g4741">
              <use
                 style="fill:#262626;stroke:#262626;"
                 x="518.4"
                 xlink:href="#m831cb175f1"
                 y="229.68"
                 id="use4743" />
            </g>
          </g>
          <g
             id="text_9">
            <!-- 0.4 -->
            <g
               style="fill:#262626;"
               transform="translate(51.1 232.26515625)scale(0.1 -0.1)"
               id="g4746">
              <use
                 xlink:href="#ArialMT-30"
                 id="use4748" />
              <use
                 x="55.615234375"
                 xlink:href="#ArialMT-2e"
                 id="use4750" />
              <use
                 x="83.3984375"
                 xlink:href="#ArialMT-34"
                 id="use4752" />
            </g>
          </g>
        </g>
        <g
           id="ytick_4">
          <g
             id="line2d_28">
            <path
               clip-path="url(#pa99b8c12f4)"
               d="M 72 166.32  L 518.4 166.32  "
               style="fill:none;stroke:#ffffff;stroke-linecap:round;"
               id="path4756" />
          </g>
          <g
             id="line2d_29">
            <g
               id="g4759">
              <use
                 style="fill:#262626;stroke:#262626;"
                 x="72.0"
                 xlink:href="#m831cb175f1"
                 y="166.32"
                 id="use4761" />
            </g>
          </g>
          <g
             id="line2d_30">
            <g
               id="g4764">
              <use
                 style="fill:#262626;stroke:#262626;"
                 x="518.4"
                 xlink:href="#m831cb175f1"
                 y="166.32"
                 id="use4766" />
            </g>
          </g>
          <g
             id="text_10">
            <!-- 0.6 -->
            <g
               style="fill:#262626;"
               transform="translate(51.1 168.90515625)scale(0.1 -0.1)"
               id="g4769">
              <use
                 xlink:href="#ArialMT-30"
                 id="use4771" />
              <use
                 x="55.615234375"
                 xlink:href="#ArialMT-2e"
                 id="use4773" />
              <use
                 x="83.3984375"
                 xlink:href="#ArialMT-36"
                 id="use4775" />
            </g>
          </g>
        </g>
        <g
           id="ytick_5">
          <g
             id="line2d_31">
            <path
               clip-path="url(#pa99b8c12f4)"
               d="M 72 102.96  L 518.4 102.96  "
               style="fill:none;stroke:#ffffff;stroke-linecap:round;"
               id="path4779" />
          </g>
          <g
             id="line2d_32">
            <g
               id="g4782">
              <use
                 style="fill:#262626;stroke:#262626;"
                 x="72.0"
                 xlink:href="#m831cb175f1"
                 y="102.96"
                 id="use4784" />
            </g>
          </g>
          <g
             id="line2d_33">
            <g
               id="g4787">
              <use
                 style="fill:#262626;stroke:#262626;"
                 x="518.4"
                 xlink:href="#m831cb175f1"
                 y="102.96"
                 id="use4789" />
            </g>
          </g>
          <g
             id="text_11">
            <!-- 0.8 -->
            <g
               style="fill:#262626;"
               transform="translate(51.1 105.54515625)scale(0.1 -0.1)"
               id="g4792">
              <use
                 xlink:href="#ArialMT-30"
                 id="use4794" />
              <use
                 x="55.615234375"
                 xlink:href="#ArialMT-2e"
                 id="use4796" />
              <use
                 x="83.3984375"
                 xlink:href="#ArialMT-38"
                 id="use4798" />
            </g>
          </g>
        </g>
        <g
           id="ytick_6">
          <g
             id="line2d_34">
            <path
               clip-path="url(#pa99b8c12f4)"
               d="M 72 39.6  L 518.4 39.6  "
               style="fill:none;stroke:#ffffff;stroke-linecap:round;"
               id="path4802" />
          </g>
          <g
             id="line2d_35">
            <g
               id="g4805">
              <use
                 style="fill:#262626;stroke:#262626;"
                 x="72.0"
                 xlink:href="#m831cb175f1"
                 y="39.6"
                 id="use4807" />
            </g>
          </g>
          <g
             id="line2d_36">
            <g
               id="g4810">
              <use
                 style="fill:#262626;stroke:#262626;"
                 x="518.4"
                 xlink:href="#m831cb175f1"
                 y="39.6"
                 id="use4812" />
            </g>
          </g>
          <g
             id="text_12">
            <!-- 1.0 -->
            <g
               style="fill:#262626;"
               transform="translate(51.1 42.18515625)scale(0.1 -0.1)"
               id="g4815">
              <use
                 xlink:href="#ArialMT-31"
                 id="use4817" />
              <use
                 x="55.615234375"
                 xlink:href="#ArialMT-2e"
                 id="use4819" />
              <use
                 x="83.3984375"
                 xlink:href="#ArialMT-30"
                 id="use4821" />
            </g>
          </g>
        </g>
      </g>
      <g
         id="line2d_37">
        <path
           clip-path="url(#pa99b8c12f4)"
           d="M 72 281.353248  L 74.232 279.246528  L 76.0176 277.2792  L 77.3568 275.565312  L 78.696 273.502944  L 80.0352 271.111104  L 84.4992 262.174176  L 85.392 260.843616  L 86.7312 259.20576  L 90.3024 255.350304  L 93.8736 251.82432  L 100.1232 245.23488  L 103.6944 240.904224  L 113.5152 228.656736  L 119.7648 221.72832  L 122.8896 218.683872  L 127.3536 214.66368  L 133.6032 209.525184  L 139.4064 205.242048  L 146.5488 200.673792  L 153.6912 196.831008  L 157.7088 194.946048  L 162.6192 192.89952  L 166.1904 191.527776  L 171.5472 189.69984  L 176.0112 188.312256  L 186.2784 185.584608  L 205.0272 181.703808  L 233.5968 177.13872  L 264.3984 173.308608  L 269.3088 172.820736  L 282.7008 171.597888  L 321.984 168.36336  L 339.3936 167.112  L 350.1072 166.396032  L 369.3024 165.144672  L 390.7296 163.886976  L 415.728 162.578592  L 437.1552 161.555328  L 460.368 160.513056  L 491.1696 159.309216  L 508.5792 158.704128  L 517.9536 158.38416  L 517.9536 158.38416  "
           style="fill:none;stroke:#4c72b0;stroke-linecap:round;stroke-width:1.75;"
           id="path4824" />
      </g>
      <g
         id="patch_3">
        <path
           d="M 72 39.6  L 518.4 39.6  "
           style="fill:none;"
           id="path4827" />
      </g>
      <g
         id="patch_4">
        <path
           d="M 518.4 356.4  L 518.4 39.6  "
           style="fill:none;"
           id="path4830" />
      </g>
      <g
         id="patch_5">
        <path
           d="M 72 356.4  L 518.4 356.4  "
           style="fill:none;"
           id="path4833" />
      </g>
      <g
         id="patch_6">
        <path
           d="M 72 356.4  L 72 39.6  "
           style="fill:none;"
           id="path4836" />
      </g>
    </g>
  </g>
  <defs
     id="defs4838">
    <clipPath
       id="pa99b8c12f4">
      <rect
         height="316.8"
         width="446.4"
         x="72.0"
         y="39.6"
         id="rect4841" />
    </clipPath>
  </defs>
</svg>
