<?xml version="1.0" encoding="UTF-8" standalone="no"?>
<!-- Created with matplotlib (http://matplotlib.org/) -->

<svg
   xmlns:dc="http://purl.org/dc/elements/1.1/"
   xmlns:cc="http://creativecommons.org/ns#"
   xmlns:rdf="http://www.w3.org/1999/02/22-rdf-syntax-ns#"
   xmlns:svg="http://www.w3.org/2000/svg"
   xmlns="http://www.w3.org/2000/svg"
   xmlns:xlink="http://www.w3.org/1999/xlink"
   xmlns:sodipodi="http://sodipodi.sourceforge.net/DTD/sodipodi-0.dtd"
   xmlns:inkscape="http://www.inkscape.org/namespaces/inkscape"
   height="396pt"
   version="1.1"
   viewBox="0 0 576 396"
   width="576pt"
   id="svg2"
   inkscape:version="0.91 r13725"
   sodipodi:docname="psipred_len_ss.svg">
  <metadata
     id="metadata192">
    <rdf:RDF>
      <cc:Work
         rdf:about="">
        <dc:format>image/svg+xml</dc:format>
        <dc:type
           rdf:resource="http://purl.org/dc/dcmitype/StillImage" />
      </cc:Work>
    </rdf:RDF>
  </metadata>
  <sodipodi:namedview
     pagecolor="#ffffff"
     bordercolor="#666666"
     borderopacity="1"
     objecttolerance="10"
     gridtolerance="10"
     guidetolerance="10"
     inkscape:pageopacity="0"
     inkscape:pageshadow="2"
     inkscape:window-width="1873"
     inkscape:window-height="1056"
     id="namedview190"
     showgrid="false"
     inkscape:zoom="1.6555556"
     inkscape:cx="360"
     inkscape:cy="247.5"
     inkscape:window-x="47"
     inkscape:window-y="24"
     inkscape:window-maximized="1"
     inkscape:current-layer="svg2" />
  <defs
     id="defs4">
    <style
       type="text/css"
       id="style6">
*{stroke-linecap:butt;stroke-linejoin:round;}
  </style>
  </defs>
  <g
     id="figure_1">
    <g
       id="patch_1">
      <path
         d="M 0 396  L 576 396  L 576 0  L 0 0  z "
         style="fill:#ffffff;"
         id="path10" />
    </g>
    <g
       id="axes_1">
      <g
         id="patch_2">
        <path
           d="M 72 352.44  L 518.4 352.44  L 518.4 47.52  L 72 47.52  z "
           style="fill:#eaeaf2;"
           id="path14" />
      </g>
      <g
         id="matplotlib.axis_1">
        <g
           id="xtick_1">
          <g
             id="line2d_1" />
          <g
             id="text_1">
            <!-- 0 -->
            <defs
               id="defs20">
              <path
                 d="M 51.703125 34.421875  Q 51.703125 24.515625 49.828125 17.75  Q 47.953125 10.984375 44.703125 6.8125  Q 41.453125 2.640625 37.0625 0.828125  Q 32.671875 -0.984375 27.6875 -0.984375  Q 22.65625 -0.984375 18.3125 0.828125  Q 13.96875 2.640625 10.765625 6.78125  Q 7.5625 10.9375 5.734375 17.703125  Q 3.90625 24.46875 3.90625 34.421875  Q 3.90625 44.828125 5.734375 51.640625  Q 7.5625 58.453125 10.78125 62.5  Q 14.015625 66.546875 18.40625 68.1875  Q 22.796875 69.828125 27.984375 69.828125  Q 32.90625 69.828125 37.21875 68.1875  Q 41.546875 66.546875 44.765625 62.5  Q 48 58.453125 49.84375 51.640625  Q 51.703125 44.828125 51.703125 34.421875  z M 42.78125 34.421875  Q 42.78125 42.625 41.796875 48.0625  Q 40.828125 53.515625 38.921875 56.765625  Q 37.015625 60.015625 34.25 61.359375  Q 31.5 62.703125 27.984375 62.703125  Q 24.265625 62.703125 21.4375 61.328125  Q 18.609375 59.96875 16.671875 56.71875  Q 14.75 53.46875 13.765625 48.015625  Q 12.796875 42.578125 12.796875 34.421875  Q 12.796875 26.515625 13.796875 21.09375  Q 14.796875 15.671875 16.71875 12.375  Q 18.65625 9.078125 21.4375 7.640625  Q 24.21875 6.203125 27.78125 6.203125  Q 31.25 6.203125 34.03125 7.640625  Q 36.8125 9.078125 38.734375 12.375  Q 40.671875 15.671875 41.71875 21.09375  Q 42.78125 26.515625 42.78125 34.421875  z "
                 id="LiberationSans-30" />
            </defs>
            <g
               style="fill:#262626;"
               transform="translate(143.619531 366.686875)scale(0.1 -0.1)"
               id="g23">
              <use
                 xlink:href="#LiberationSans-30"
                 id="use25" />
            </g>
          </g>
        </g>
        <g
           id="xtick_2">
          <g
             id="line2d_2" />
          <g
             id="text_2">
            <!-- 1 -->
            <defs
               id="defs30">
              <path
                 d="M 7.625 0  L 7.625 7.46875  L 25.140625 7.46875  L 25.140625 60.40625  L 9.625 49.3125  L 9.625 57.625  L 25.875 68.796875  L 33.984375 68.796875  L 33.984375 7.46875  L 50.734375 7.46875  L 50.734375 0  z "
                 id="LiberationSans-31" />
            </defs>
            <g
               style="fill:#262626;"
               transform="translate(292.419531 366.686875)scale(0.1 -0.1)"
               id="g33">
              <use
                 xlink:href="#LiberationSans-31"
                 id="use35" />
            </g>
          </g>
        </g>
        <g
           id="xtick_3">
          <g
             id="line2d_3" />
          <g
             id="text_3">
            <!-- 2 -->
            <defs
               id="defs40">
              <path
                 d="M 5.03125 0  L 5.03125 6.203125  Q 7.515625 11.921875 11.109375 16.28125  Q 14.703125 20.65625 18.65625 24.1875  Q 22.609375 27.734375 26.484375 30.765625  Q 30.375 33.796875 33.5 36.8125  Q 36.625 39.84375 38.546875 43.15625  Q 40.484375 46.484375 40.484375 50.6875  Q 40.484375 53.609375 39.59375 55.828125  Q 38.71875 58.0625 37.0625 59.5625  Q 35.40625 61.078125 33.078125 61.828125  Q 30.765625 62.59375 27.9375 62.59375  Q 25.296875 62.59375 22.96875 61.859375  Q 20.65625 61.140625 18.84375 59.671875  Q 17.046875 58.203125 15.890625 56.03125  Q 14.75 53.859375 14.40625 50.984375  L 5.421875 51.8125  Q 5.859375 55.515625 7.46875 58.78125  Q 9.078125 62.0625 11.90625 64.53125  Q 14.75 67 18.71875 68.40625  Q 22.703125 69.828125 27.9375 69.828125  Q 33.0625 69.828125 37.0625 68.609375  Q 41.0625 67.390625 43.8125 64.984375  Q 46.578125 62.59375 48.046875 59.078125  Q 49.515625 55.5625 49.515625 50.984375  Q 49.515625 47.515625 48.265625 44.390625  Q 47.015625 41.265625 44.9375 38.421875  Q 42.875 35.59375 40.140625 32.953125  Q 37.40625 30.328125 34.421875 27.8125  Q 31.453125 25.296875 28.421875 22.828125  Q 25.390625 20.359375 22.71875 17.859375  Q 20.0625 15.375 17.96875 12.8125  Q 15.875 10.25 14.703125 7.46875  L 50.59375 7.46875  L 50.59375 0  z "
                 id="LiberationSans-32" />
            </defs>
            <g
               style="fill:#262626;"
               transform="translate(441.219531 366.686875)scale(0.1 -0.1)"
               id="g43">
              <use
                 xlink:href="#LiberationSans-32"
                 id="use45" />
            </g>
          </g>
        </g>
      </g>
      <g
         id="matplotlib.axis_2">
        <g
           id="ytick_1">
          <g
             id="line2d_4">
            <path
               clip-path="url(#p420940c12a)"
               d="M 72 352.44  L 518.4 352.44  "
               style="fill:none;stroke:#ffffff;stroke-linecap:round;"
               id="path50" />
          </g>
          <g
             id="line2d_5" />
          <g
             id="text_4">
            <!-- 0 -->
            <g
               style="fill:#262626;"
               transform="translate(59.439062 356.063438)scale(0.1 -0.1)"
               id="g54">
              <use
                 xlink:href="#LiberationSans-30"
                 id="use56" />
            </g>
          </g>
        </g>
        <g
           id="ytick_2">
          <g
             id="line2d_6">
            <path
               clip-path="url(#p420940c12a)"
               d="M 72 298.567208  L 518.4 298.567208  "
               style="fill:none;stroke:#ffffff;stroke-linecap:round;"
               id="path60" />
          </g>
          <g
             id="line2d_7" />
          <g
             id="text_5">
            <!-- 5 -->
            <defs
               id="defs64">
              <path
                 d="M 51.421875 22.40625  Q 51.421875 17.234375 49.859375 12.9375  Q 48.296875 8.640625 45.21875 5.53125  Q 42.140625 2.4375 37.578125 0.71875  Q 33.015625 -0.984375 27 -0.984375  Q 21.578125 -0.984375 17.546875 0.28125  Q 13.53125 1.5625 10.734375 3.78125  Q 7.953125 6 6.3125 8.984375  Q 4.6875 11.96875 4 15.375  L 12.890625 16.40625  Q 13.421875 14.453125 14.390625 12.625  Q 15.375 10.796875 17.0625 9.34375  Q 18.75 7.90625 21.21875 7.046875  Q 23.6875 6.203125 27.203125 6.203125  Q 30.609375 6.203125 33.390625 7.25  Q 36.1875 8.296875 38.15625 10.34375  Q 40.140625 12.40625 41.203125 15.375  Q 42.28125 18.359375 42.28125 22.21875  Q 42.28125 25.390625 41.25 28.046875  Q 40.234375 30.71875 38.328125 32.640625  Q 36.421875 34.578125 33.65625 35.640625  Q 30.90625 36.71875 27.390625 36.71875  Q 25.203125 36.71875 23.34375 36.328125  Q 21.484375 35.9375 19.890625 35.25  Q 18.3125 34.578125 17.015625 33.671875  Q 15.71875 32.765625 14.59375 31.78125  L 6 31.78125  L 8.296875 68.796875  L 47.40625 68.796875  L 47.40625 61.328125  L 16.3125 61.328125  L 14.984375 39.5  Q 17.328125 41.3125 20.84375 42.59375  Q 24.359375 43.890625 29.203125 43.890625  Q 34.328125 43.890625 38.421875 42.328125  Q 42.53125 40.765625 45.40625 37.90625  Q 48.296875 35.0625 49.859375 31.109375  Q 51.421875 27.15625 51.421875 22.40625  z "
                 id="LiberationSans-35" />
            </defs>
            <g
               style="fill:#262626;"
               transform="translate(59.439062 302.190646)scale(0.1 -0.1)"
               id="g67">
              <use
                 xlink:href="#LiberationSans-35"
                 id="use69" />
            </g>
          </g>
        </g>
        <g
           id="ytick_3">
          <g
             id="line2d_8">
            <path
               clip-path="url(#p420940c12a)"
               d="M 72 244.694417  L 518.4 244.694417  "
               style="fill:none;stroke:#ffffff;stroke-linecap:round;"
               id="path73" />
          </g>
          <g
             id="line2d_9" />
          <g
             id="text_6">
            <!-- 10 -->
            <g
               style="fill:#262626;"
               transform="translate(53.878125 248.317854)scale(0.1 -0.1)"
               id="g77">
              <use
                 xlink:href="#LiberationSans-31"
                 id="use79" />
              <use
                 x="55.615234"
                 xlink:href="#LiberationSans-30"
                 id="use81" />
            </g>
          </g>
        </g>
        <g
           id="ytick_4">
          <g
             id="line2d_10">
            <path
               clip-path="url(#p420940c12a)"
               d="M 72 190.821625  L 518.4 190.821625  "
               style="fill:none;stroke:#ffffff;stroke-linecap:round;"
               id="path85" />
          </g>
          <g
             id="line2d_11" />
          <g
             id="text_7">
            <!-- 15 -->
            <g
               style="fill:#262626;"
               transform="translate(53.878125 194.445063)scale(0.1 -0.1)"
               id="g89">
              <use
                 xlink:href="#LiberationSans-31"
                 id="use91" />
              <use
                 x="55.615234"
                 xlink:href="#LiberationSans-35"
                 id="use93" />
            </g>
          </g>
        </g>
        <g
           id="ytick_5">
          <g
             id="line2d_12">
            <path
               clip-path="url(#p420940c12a)"
               d="M 72 136.948834  L 518.4 136.948834  "
               style="fill:none;stroke:#ffffff;stroke-linecap:round;"
               id="path97" />
          </g>
          <g
             id="line2d_13" />
          <g
             id="text_8">
            <!-- 20 -->
            <g
               style="fill:#262626;"
               transform="translate(53.878125 140.572271)scale(0.1 -0.1)"
               id="g101">
              <use
                 xlink:href="#LiberationSans-32"
                 id="use103" />
              <use
                 x="55.615234"
                 xlink:href="#LiberationSans-30"
                 id="use105" />
            </g>
          </g>
        </g>
        <g
           id="ytick_6">
          <g
             id="line2d_14">
            <path
               clip-path="url(#p420940c12a)"
               d="M 72 83.076042  L 518.4 83.076042  "
               style="fill:none;stroke:#ffffff;stroke-linecap:round;"
               id="path109" />
          </g>
          <g
             id="line2d_15" />
          <g
             id="text_9">
            <!-- 25 -->
            <g
               style="fill:#262626;"
               transform="translate(53.878125 86.69948)scale(0.1 -0.1)"
               id="g113">
              <use
                 xlink:href="#LiberationSans-32"
                 id="use115" />
              <use
                 x="55.615234"
                 xlink:href="#LiberationSans-35"
                 id="use117" />
            </g>
          </g>
        </g>
      </g>
      <g
         id="patch_3">
        <path
           clip-path="url(#p420940c12a)"
           d="M 86.88 298.567208  L 205.92 298.567208  L 205.92 201.596184  L 86.88 201.596184  L 86.88 298.567208  z "
           style="fill:#597dbe;stroke:#545454;stroke-linejoin:miter;stroke-width:1.75;"
           id="path120" />
      </g>
      <g
         id="patch_4">
        <path
           clip-path="url(#p420940c12a)"
           d="M 235.68 309.341767  L 354.72 309.341767  L 354.72 277.018092  L 235.68 277.018092  L 235.68 309.341767  z "
           style="fill:#76bf72;stroke:#545454;stroke-linejoin:miter;stroke-width:1.75;"
           id="path123" />
      </g>
      <g
         id="patch_5">
        <path
           clip-path="url(#p420940c12a)"
           d="M 384.48 320.116325  L 503.52 320.116325  L 503.52 266.243534  L 384.48 266.243534  L 384.48 320.116325  z "
           style="fill:#c76e6e;stroke:#545454;stroke-linejoin:miter;stroke-width:1.75;"
           id="path126" />
      </g>
      <g
         id="line2d_16">
        <path
           clip-path="url(#p420940c12a)"
           d="M 146.4 298.567208  L 146.4 341.665442  "
           style="fill:none;stroke:#545454;stroke-linecap:round;stroke-width:1.75;"
           id="path129" />
      </g>
      <g
         id="line2d_17">
        <path
           clip-path="url(#p420940c12a)"
           d="M 146.4 201.596184  L 146.4 61.526926  "
           style="fill:none;stroke:#545454;stroke-linecap:round;stroke-width:1.75;"
           id="path132" />
      </g>
      <g
         id="line2d_18">
        <path
           clip-path="url(#p420940c12a)"
           d="M 116.64 341.665442  L 176.16 341.665442  "
           style="fill:none;stroke:#545454;stroke-linecap:round;stroke-width:1.75;"
           id="path135" />
      </g>
      <g
         id="line2d_19">
        <path
           clip-path="url(#p420940c12a)"
           d="M 116.64 61.526926  L 176.16 61.526926  "
           style="fill:none;stroke:#545454;stroke-linecap:round;stroke-width:1.75;"
           id="path138" />
      </g>
      <g
         id="line2d_20">
        <path
           clip-path="url(#p420940c12a)"
           d="M 295.2 309.341767  L 295.2 341.665442  "
           style="fill:none;stroke:#545454;stroke-linecap:round;stroke-width:1.75;"
           id="path141" />
      </g>
      <g
         id="line2d_21">
        <path
           clip-path="url(#p420940c12a)"
           d="M 295.2 277.018092  L 295.2 233.919859  "
           style="fill:none;stroke:#545454;stroke-linecap:round;stroke-width:1.75;"
           id="path144" />
      </g>
      <g
         id="line2d_22">
        <path
           clip-path="url(#p420940c12a)"
           d="M 265.44 341.665442  L 324.96 341.665442  "
           style="fill:none;stroke:#545454;stroke-linecap:round;stroke-width:1.75;"
           id="path147" />
      </g>
      <g
         id="line2d_23">
        <path
           clip-path="url(#p420940c12a)"
           d="M 265.44 233.919859  L 324.96 233.919859  "
           style="fill:none;stroke:#545454;stroke-linecap:round;stroke-width:1.75;"
           id="path150" />
      </g>
      <g
         id="line2d_24">
        <path
           clip-path="url(#p420940c12a)"
           d="M 444 320.116325  L 444 341.665442  "
           style="fill:none;stroke:#545454;stroke-linecap:round;stroke-width:1.75;"
           id="path153" />
      </g>
      <g
         id="line2d_25">
        <path
           clip-path="url(#p420940c12a)"
           d="M 444 266.243534  L 444 190.821625  "
           style="fill:none;stroke:#545454;stroke-linecap:round;stroke-width:1.75;"
           id="path156" />
      </g>
      <g
         id="line2d_26">
        <path
           clip-path="url(#p420940c12a)"
           d="M 414.24 341.665442  L 473.76 341.665442  "
           style="fill:none;stroke:#545454;stroke-linecap:round;stroke-width:1.75;"
           id="path159" />
      </g>
      <g
         id="line2d_27">
        <path
           clip-path="url(#p420940c12a)"
           d="M 414.24 190.821625  L 473.76 190.821625  "
           style="fill:none;stroke:#545454;stroke-linecap:round;stroke-width:1.75;"
           id="path162" />
      </g>
      <g
         id="line2d_28">
        <path
           clip-path="url(#p420940c12a)"
           d="M 86.88 255.468975  L 205.92 255.468975  "
           style="fill:none;stroke:#545454;stroke-linecap:round;stroke-width:1.75;"
           id="path165" />
      </g>
      <g
         id="line2d_29">
        <path
           clip-path="url(#p420940c12a)"
           d="M 235.68 298.567208  L 354.72 298.567208  "
           style="fill:none;stroke:#545454;stroke-linecap:round;stroke-width:1.75;"
           id="path168" />
      </g>
      <g
         id="line2d_30">
        <path
           clip-path="url(#p420940c12a)"
           d="M 384.48 298.567208  L 503.52 298.567208  "
           style="fill:none;stroke:#545454;stroke-linecap:round;stroke-width:1.75;"
           id="path171" />
      </g>
      <g
         id="patch_6">
        <path
           d="M 72 352.44  L 72 47.52  "
           style="fill:none;"
           id="path174" />
      </g>
      <g
         id="patch_7">
        <path
           d="M 518.4 352.44  L 518.4 47.52  "
           style="fill:none;"
           id="path177" />
      </g>
      <g
         id="patch_8">
        <path
           d="M 72 352.44  L 518.4 352.44  "
           style="fill:none;"
           id="path180" />
      </g>
      <g
         id="patch_9">
        <path
           d="M 72 47.52  L 518.4 47.52  "
           style="fill:none;"
           id="path183" />
      </g>
    </g>
  </g>
  <defs
     id="defs185">
    <clipPath
       id="p420940c12a">
      <rect
         height="304.92"
         width="446.4"
         x="72"
         y="47.52"
         id="rect188" />
    </clipPath>
  </defs>
  <rect
     style="fill:#ffffff;fill-opacity:1;stroke:#ffffff;stroke-width:0.80000001;stroke-linecap:butt;stroke-linejoin:round;stroke-miterlimit:4;stroke-dasharray:none;stroke-dashoffset:0;stroke-opacity:1"
     id="rect4320"
     width="444.08051"
     height="14.496645"
     x="81.181206"
     y="358.30872" />
  <text
     xml:space="preserve"
     style="font-style:normal;font-weight:normal;font-size:32px;line-height:125%;font-family:sans-serif;text-align:center;letter-spacing:0px;word-spacing:0px;text-anchor:middle;fill:#000000;fill-opacity:1;stroke:none;stroke-width:1px;stroke-linecap:butt;stroke-linejoin:miter;stroke-opacity:1"
     x="146.89932"
     y="372.42776"
     id="text4322"
     sodipodi:linespacing="125%"><tspan
       sodipodi:role="line"
       id="tspan4324"
       style="font-style:normal;font-variant:normal;font-weight:normal;font-stretch:normal;font-size:16px;font-family:Palatino;-inkscape-font-specification:Palatino;stroke-linecap:butt;stroke-linejoin:round"
       x="146.89932"
       y="372.42776">H</tspan></text>
  <text
     xml:space="preserve"
     style="font-style:normal;font-weight:normal;font-size:32px;line-height:125%;font-family:sans-serif;text-align:center;letter-spacing:0px;word-spacing:0px;text-anchor:middle;fill:#000000;fill-opacity:1;stroke:none;stroke-width:1px;stroke-linecap:butt;stroke-linejoin:miter;stroke-opacity:1"
     x="295.56049"
     y="372.42776"
     id="text4326"
     sodipodi:linespacing="125%"><tspan
       sodipodi:role="line"
       id="tspan4328"
       style="font-style:normal;font-variant:normal;font-weight:normal;font-stretch:normal;font-size:16px;font-family:Palatino;-inkscape-font-specification:Palatino;stroke-linecap:butt;stroke-linejoin:round"
       x="295.56049"
       y="372.42776">E</tspan></text>
  <text
     xml:space="preserve"
     style="font-style:normal;font-weight:normal;font-size:32px;line-height:125%;font-family:sans-serif;text-align:center;letter-spacing:0px;word-spacing:0px;text-anchor:middle;fill:#000000;fill-opacity:1;stroke:none;stroke-width:1px;stroke-linecap:butt;stroke-linejoin:miter;stroke-opacity:1"
     x="444.08051"
     y="372.42776"
     id="text4330"
     sodipodi:linespacing="125%"><tspan
       sodipodi:role="line"
       id="tspan4332"
       style="font-style:normal;font-variant:normal;font-weight:normal;font-stretch:normal;font-size:16px;font-family:Palatino;-inkscape-font-specification:Palatino;stroke-linecap:butt;stroke-linejoin:round"
       x="444.08051"
       y="372.42776">C</tspan></text>
</svg>
