<?xml version="1.0" encoding="UTF-8" standalone="no"?>
<!-- Created with matplotlib (http://matplotlib.org/) -->

<svg
   xmlns:dc="http://purl.org/dc/elements/1.1/"
   xmlns:cc="http://creativecommons.org/ns#"
   xmlns:rdf="http://www.w3.org/1999/02/22-rdf-syntax-ns#"
   xmlns:svg="http://www.w3.org/2000/svg"
   xmlns="http://www.w3.org/2000/svg"
   xmlns:xlink="http://www.w3.org/1999/xlink"
   xmlns:sodipodi="http://sodipodi.sourceforge.net/DTD/sodipodi-0.dtd"
   xmlns:inkscape="http://www.inkscape.org/namespaces/inkscape"
   height="396pt"
   version="1.1"
   viewBox="0 0 576 396"
   width="576pt"
   id="svg2"
   inkscape:version="0.91 r13725"
   sodipodi:docname="tipos_de_dissenso.svg">
  <metadata
     id="metadata209">
    <rdf:RDF>
      <cc:Work
         rdf:about="">
        <dc:format>image/svg+xml</dc:format>
        <dc:type
           rdf:resource="http://purl.org/dc/dcmitype/StillImage" />
        <dc:title></dc:title>
      </cc:Work>
    </rdf:RDF>
  </metadata>
  <sodipodi:namedview
     pagecolor="#ffffff"
     bordercolor="#666666"
     borderopacity="1"
     objecttolerance="10"
     gridtolerance="10"
     guidetolerance="10"
     inkscape:pageopacity="0"
     inkscape:pageshadow="2"
     inkscape:window-width="1873"
     inkscape:window-height="1056"
     id="namedview207"
     showgrid="false"
     inkscape:zoom="1.6555556"
     inkscape:cx="360"
     inkscape:cy="223.33893"
     inkscape:window-x="47"
     inkscape:window-y="24"
     inkscape:window-maximized="1"
     inkscape:current-layer="svg2" />
  <defs
     id="defs4">
    <marker
       inkscape:isstock="true"
       style="overflow:visible;"
       id="marker9319"
       refX="0.0"
       refY="0.0"
       orient="auto"
       inkscape:stockid="Arrow1Mend">
      <path
         transform="scale(0.4) rotate(180) translate(10,0)"
         style="fill-rule:evenodd;stroke:#000000;stroke-width:1pt;stroke-opacity:1;fill:#000000;fill-opacity:1"
         d="M 0.0,0.0 L 5.0,-5.0 L -12.5,0.0 L 5.0,5.0 L 0.0,0.0 z "
         id="path9321" />
    </marker>
    <marker
       inkscape:isstock="true"
       style="overflow:visible"
       id="marker9147"
       refX="0.0"
       refY="0.0"
       orient="auto"
       inkscape:stockid="Arrow1Mstart">
      <path
         transform="scale(0.4) translate(10,0)"
         style="fill-rule:evenodd;stroke:#000000;stroke-width:1pt;stroke-opacity:1;fill:#000000;fill-opacity:1"
         d="M 0.0,0.0 L 5.0,-5.0 L -12.5,0.0 L 5.0,5.0 L 0.0,0.0 z "
         id="path9149" />
    </marker>
    <marker
       inkscape:stockid="Arrow1Mend"
       orient="auto"
       refY="0.0"
       refX="0.0"
       id="marker6350"
       style="overflow:visible;"
       inkscape:isstock="true">
      <path
         id="path6352"
         d="M 0.0,0.0 L 5.0,-5.0 L -12.5,0.0 L 5.0,5.0 L 0.0,0.0 z "
         style="fill-rule:evenodd;stroke:#000000;stroke-width:1pt;stroke-opacity:1;fill:#000000;fill-opacity:1"
         transform="scale(0.4) rotate(180) translate(10,0)" />
    </marker>
    <marker
       inkscape:stockid="Arrow1Mstart"
       orient="auto"
       refY="0.0"
       refX="0.0"
       id="marker6238"
       style="overflow:visible"
       inkscape:isstock="true">
      <path
         id="path6240"
         d="M 0.0,0.0 L 5.0,-5.0 L -12.5,0.0 L 5.0,5.0 L 0.0,0.0 z "
         style="fill-rule:evenodd;stroke:#000000;stroke-width:1pt;stroke-opacity:1;fill:#000000;fill-opacity:1"
         transform="scale(0.4) translate(10,0)" />
    </marker>
    <marker
       inkscape:isstock="true"
       style="overflow:visible;"
       id="marker5996"
       refX="0.0"
       refY="0.0"
       orient="auto"
       inkscape:stockid="Arrow1Mend"
       inkscape:collect="always">
      <path
         transform="scale(0.4) rotate(180) translate(10,0)"
         style="fill-rule:evenodd;stroke:#000000;stroke-width:1pt;stroke-opacity:1;fill:#000000;fill-opacity:1"
         d="M 0.0,0.0 L 5.0,-5.0 L -12.5,0.0 L 5.0,5.0 L 0.0,0.0 z "
         id="path5998" />
    </marker>
    <marker
       inkscape:isstock="true"
       style="overflow:visible"
       id="marker5908"
       refX="0.0"
       refY="0.0"
       orient="auto"
       inkscape:stockid="Arrow1Mstart"
       inkscape:collect="always">
      <path
         transform="scale(0.4) translate(10,0)"
         style="fill-rule:evenodd;stroke:#000000;stroke-width:1pt;stroke-opacity:1;fill:#000000;fill-opacity:1"
         d="M 0.0,0.0 L 5.0,-5.0 L -12.5,0.0 L 5.0,5.0 L 0.0,0.0 z "
         id="path5910" />
    </marker>
    <marker
       inkscape:stockid="Arrow1Mend"
       orient="auto"
       refY="0.0"
       refX="0.0"
       id="Arrow1Mend"
       style="overflow:visible;"
       inkscape:isstock="true"
       inkscape:collect="always">
      <path
         id="path4394"
         d="M 0.0,0.0 L 5.0,-5.0 L -12.5,0.0 L 5.0,5.0 L 0.0,0.0 z "
         style="fill-rule:evenodd;stroke:#000000;stroke-width:1pt;stroke-opacity:1;fill:#000000;fill-opacity:1"
         transform="scale(0.4) rotate(180) translate(10,0)" />
    </marker>
    <marker
       inkscape:stockid="Arrow1Mstart"
       orient="auto"
       refY="0.0"
       refX="0.0"
       id="Arrow1Mstart"
       style="overflow:visible"
       inkscape:isstock="true"
       inkscape:collect="always">
      <path
         id="path4391"
         d="M 0.0,0.0 L 5.0,-5.0 L -12.5,0.0 L 5.0,5.0 L 0.0,0.0 z "
         style="fill-rule:evenodd;stroke:#000000;stroke-width:1pt;stroke-opacity:1;fill:#000000;fill-opacity:1"
         transform="scale(0.4) translate(10,0)" />
    </marker>
    <marker
       inkscape:stockid="Arrow1Sstart"
       orient="auto"
       refY="0.0"
       refX="0.0"
       id="Arrow1Sstart"
       style="overflow:visible"
       inkscape:isstock="true">
      <path
         id="path4397"
         d="M 0.0,0.0 L 5.0,-5.0 L -12.5,0.0 L 5.0,5.0 L 0.0,0.0 z "
         style="fill-rule:evenodd;stroke:#000000;stroke-width:1pt;stroke-opacity:1;fill:#000000;fill-opacity:1"
         transform="scale(0.2) translate(6,0)" />
    </marker>
    <marker
       inkscape:stockid="Arrow1Lstart"
       orient="auto"
       refY="0.0"
       refX="0.0"
       id="marker4745"
       style="overflow:visible"
       inkscape:isstock="true">
      <path
         id="path4747"
         d="M 0.0,0.0 L 5.0,-5.0 L -12.5,0.0 L 5.0,5.0 L 0.0,0.0 z "
         style="fill-rule:evenodd;stroke:#000000;stroke-width:1pt;stroke-opacity:1;fill:#000000;fill-opacity:1"
         transform="scale(0.8) translate(12.5,0)" />
    </marker>
    <marker
       inkscape:stockid="Arrow1Lstart"
       orient="auto"
       refY="0.0"
       refX="0.0"
       id="marker4711"
       style="overflow:visible"
       inkscape:isstock="true">
      <path
         id="path4713"
         d="M 0.0,0.0 L 5.0,-5.0 L -12.5,0.0 L 5.0,5.0 L 0.0,0.0 z "
         style="fill-rule:evenodd;stroke:#000000;stroke-width:1pt;stroke-opacity:1;fill:#000000;fill-opacity:1"
         transform="scale(0.8) translate(12.5,0)" />
    </marker>
    <marker
       inkscape:stockid="Arrow1Lstart"
       orient="auto"
       refY="0.0"
       refX="0.0"
       id="marker4683"
       style="overflow:visible"
       inkscape:isstock="true">
      <path
         id="path4685"
         d="M 0.0,0.0 L 5.0,-5.0 L -12.5,0.0 L 5.0,5.0 L 0.0,0.0 z "
         style="fill-rule:evenodd;stroke:#000000;stroke-width:1pt;stroke-opacity:1;fill:#000000;fill-opacity:1"
         transform="scale(0.8) translate(12.5,0)" />
    </marker>
    <marker
       inkscape:stockid="Arrow1Lstart"
       orient="auto"
       refY="0.0"
       refX="0.0"
       id="marker4661"
       style="overflow:visible"
       inkscape:isstock="true">
      <path
         id="path4663"
         d="M 0.0,0.0 L 5.0,-5.0 L -12.5,0.0 L 5.0,5.0 L 0.0,0.0 z "
         style="fill-rule:evenodd;stroke:#000000;stroke-width:1pt;stroke-opacity:1;fill:#000000;fill-opacity:1"
         transform="scale(0.8) translate(12.5,0)" />
    </marker>
    <marker
       inkscape:stockid="Arrow1Lstart"
       orient="auto"
       refY="0.0"
       refX="0.0"
       id="Arrow1Lstart"
       style="overflow:visible"
       inkscape:isstock="true">
      <path
         id="path4385"
         d="M 0.0,0.0 L 5.0,-5.0 L -12.5,0.0 L 5.0,5.0 L 0.0,0.0 z "
         style="fill-rule:evenodd;stroke:#000000;stroke-width:1pt;stroke-opacity:1;fill:#000000;fill-opacity:1"
         transform="scale(0.8) translate(12.5,0)" />
    </marker>
    <style
       type="text/css"
       id="style6">
*{stroke-linecap:butt;stroke-linejoin:round;}
  </style>
    <marker
       inkscape:stockid="Arrow1Mstart"
       orient="auto"
       refY="0"
       refX="0"
       id="Arrow1Mstart-3"
       style="overflow:visible"
       inkscape:isstock="true">
      <path
         inkscape:connector-curvature="0"
         id="path4391-5"
         d="M 0,0 5,-5 -12.5,0 5,5 0,0 Z"
         style="fill:#000000;fill-opacity:1;fill-rule:evenodd;stroke:#000000;stroke-width:1pt;stroke-opacity:1"
         transform="matrix(0.4,0,0,0.4,4,0)" />
    </marker>
    <marker
       inkscape:stockid="Arrow1Mend"
       orient="auto"
       refY="0"
       refX="0"
       id="Arrow1Mend-6"
       style="overflow:visible"
       inkscape:isstock="true">
      <path
         inkscape:connector-curvature="0"
         id="path4394-2"
         d="M 0,0 5,-5 -12.5,0 5,5 0,0 Z"
         style="fill:#000000;fill-opacity:1;fill-rule:evenodd;stroke:#000000;stroke-width:1pt;stroke-opacity:1"
         transform="matrix(-0.4,0,0,-0.4,-4,0)" />
    </marker>
    <marker
       inkscape:stockid="Arrow1Mstart"
       orient="auto"
       refY="0"
       refX="0"
       id="Arrow1Mstart-9"
       style="overflow:visible"
       inkscape:isstock="true">
      <path
         inkscape:connector-curvature="0"
         id="path4391-3"
         d="M 0,0 5,-5 -12.5,0 5,5 0,0 Z"
         style="fill:#000000;fill-opacity:1;fill-rule:evenodd;stroke:#000000;stroke-width:1pt;stroke-opacity:1"
         transform="matrix(0.4,0,0,0.4,4,0)" />
    </marker>
    <marker
       inkscape:stockid="Arrow1Mend"
       orient="auto"
       refY="0"
       refX="0"
       id="Arrow1Mend-60"
       style="overflow:visible"
       inkscape:isstock="true">
      <path
         inkscape:connector-curvature="0"
         id="path4394-6"
         d="M 0,0 5,-5 -12.5,0 5,5 0,0 Z"
         style="fill:#000000;fill-opacity:1;fill-rule:evenodd;stroke:#000000;stroke-width:1pt;stroke-opacity:1"
         transform="matrix(-0.4,0,0,-0.4,-4,0)" />
    </marker>
    <marker
       inkscape:stockid="Arrow1Mstart"
       orient="auto"
       refY="0"
       refX="0"
       id="Arrow1Mstart-0"
       style="overflow:visible"
       inkscape:isstock="true">
      <path
         inkscape:connector-curvature="0"
         id="path4391-2"
         d="M 0,0 5,-5 -12.5,0 5,5 0,0 Z"
         style="fill:#000000;fill-opacity:1;fill-rule:evenodd;stroke:#000000;stroke-width:1pt;stroke-opacity:1"
         transform="matrix(0.4,0,0,0.4,4,0)" />
    </marker>
    <marker
       inkscape:stockid="Arrow1Mend"
       orient="auto"
       refY="0"
       refX="0"
       id="Arrow1Mend-3"
       style="overflow:visible"
       inkscape:isstock="true">
      <path
         inkscape:connector-curvature="0"
         id="path4394-7"
         d="M 0,0 5,-5 -12.5,0 5,5 0,0 Z"
         style="fill:#000000;fill-opacity:1;fill-rule:evenodd;stroke:#000000;stroke-width:1pt;stroke-opacity:1"
         transform="matrix(-0.4,0,0,-0.4,-4,0)" />
    </marker>
    <marker
       inkscape:stockid="Arrow1Mstart"
       orient="auto"
       refY="0"
       refX="0"
       id="marker6238-6"
       style="overflow:visible"
       inkscape:isstock="true">
      <path
         inkscape:connector-curvature="0"
         id="path6240-1"
         d="M 0,0 5,-5 -12.5,0 5,5 0,0 Z"
         style="fill:#000000;fill-opacity:1;fill-rule:evenodd;stroke:#000000;stroke-width:1pt;stroke-opacity:1"
         transform="matrix(0.4,0,0,0.4,4,0)" />
    </marker>
    <marker
       inkscape:stockid="Arrow1Mend"
       orient="auto"
       refY="0"
       refX="0"
       id="marker6350-2"
       style="overflow:visible"
       inkscape:isstock="true">
      <path
         inkscape:connector-curvature="0"
         id="path6352-9"
         d="M 0,0 5,-5 -12.5,0 5,5 0,0 Z"
         style="fill:#000000;fill-opacity:1;fill-rule:evenodd;stroke:#000000;stroke-width:1pt;stroke-opacity:1"
         transform="matrix(-0.4,0,0,-0.4,-4,0)" />
    </marker>
    <marker
       inkscape:stockid="Arrow1Mstart"
       orient="auto"
       refY="0"
       refX="0"
       id="marker6238-1"
       style="overflow:visible"
       inkscape:isstock="true">
      <path
         inkscape:connector-curvature="0"
         id="path6240-9"
         d="M 0,0 5,-5 -12.5,0 5,5 0,0 Z"
         style="fill:#000000;fill-opacity:1;fill-rule:evenodd;stroke:#000000;stroke-width:1pt;stroke-opacity:1"
         transform="matrix(0.4,0,0,0.4,4,0)" />
    </marker>
    <marker
       inkscape:stockid="Arrow1Mend"
       orient="auto"
       refY="0"
       refX="0"
       id="marker6350-4"
       style="overflow:visible"
       inkscape:isstock="true">
      <path
         inkscape:connector-curvature="0"
         id="path6352-7"
         d="M 0,0 5,-5 -12.5,0 5,5 0,0 Z"
         style="fill:#000000;fill-opacity:1;fill-rule:evenodd;stroke:#000000;stroke-width:1pt;stroke-opacity:1"
         transform="matrix(-0.4,0,0,-0.4,-4,0)" />
    </marker>
    <marker
       inkscape:stockid="Arrow1Mstart"
       orient="auto"
       refY="0"
       refX="0"
       id="marker6238-4"
       style="overflow:visible"
       inkscape:isstock="true">
      <path
         inkscape:connector-curvature="0"
         id="path6240-5"
         d="M 0,0 5,-5 -12.5,0 5,5 0,0 Z"
         style="fill:#000000;fill-opacity:1;fill-rule:evenodd;stroke:#000000;stroke-width:1pt;stroke-opacity:1"
         transform="matrix(0.4,0,0,0.4,4,0)" />
    </marker>
    <marker
       inkscape:stockid="Arrow1Mend"
       orient="auto"
       refY="0"
       refX="0"
       id="marker6350-0"
       style="overflow:visible"
       inkscape:isstock="true">
      <path
         inkscape:connector-curvature="0"
         id="path6352-3"
         d="M 0,0 5,-5 -12.5,0 5,5 0,0 Z"
         style="fill:#000000;fill-opacity:1;fill-rule:evenodd;stroke:#000000;stroke-width:1pt;stroke-opacity:1"
         transform="matrix(-0.4,0,0,-0.4,-4,0)" />
    </marker>
    <marker
       inkscape:stockid="Arrow1Mstart"
       orient="auto"
       refY="0"
       refX="0"
       id="marker6238-4-1"
       style="overflow:visible"
       inkscape:isstock="true">
      <path
         inkscape:connector-curvature="0"
         id="path6240-5-0"
         d="M 0,0 5,-5 -12.5,0 5,5 0,0 Z"
         style="fill:#000000;fill-opacity:1;fill-rule:evenodd;stroke:#000000;stroke-width:1pt;stroke-opacity:1"
         transform="matrix(0.4,0,0,0.4,4,0)" />
    </marker>
    <marker
       inkscape:stockid="Arrow1Mend"
       orient="auto"
       refY="0"
       refX="0"
       id="marker6350-0-6"
       style="overflow:visible"
       inkscape:isstock="true">
      <path
         inkscape:connector-curvature="0"
         id="path6352-3-3"
         d="M 0,0 5,-5 -12.5,0 5,5 0,0 Z"
         style="fill:#000000;fill-opacity:1;fill-rule:evenodd;stroke:#000000;stroke-width:1pt;stroke-opacity:1"
         transform="matrix(-0.4,0,0,-0.4,-4,0)" />
    </marker>
  </defs>
  <defs
     id="defs202">
    <clipPath
       id="p848e1b6beb">
      <rect
         height="304.92"
         width="446.4"
         x="72"
         y="47.52"
         id="rect205" />
    </clipPath>
  </defs>
  <g
     id="g9692">
    <g
       id="figure_1">
      <g
         id="patch_1">
        <path
           id="path10"
           style="fill:#ffffff;"
           d="M 0 396  L 576 396  L 576 0  L 0 0  z " />
      </g>
      <g
         id="axes_1">
        <g
           id="patch_2">
          <path
             id="path14"
             style="fill:#eaeaf2;"
             d="M 72 352.44  L 518.4 352.44  L 518.4 47.52  L 72 47.52  z " />
        </g>
        <g
           id="matplotlib.axis_1">
          <g
             id="xtick_1">
            <g
               id="line2d_1" />
            <g
               id="text_1">
              <!-- HC -->
              <defs
                 id="defs20">
                <path
                   id="LiberationSans-48"
                   d="M 54.734375 0  L 54.734375 31.890625  L 17.53125 31.890625  L 17.53125 0  L 8.203125 0  L 8.203125 68.796875  L 17.53125 68.796875  L 17.53125 39.703125  L 54.734375 39.703125  L 54.734375 68.796875  L 64.0625 68.796875  L 64.0625 0  z " />
                <path
                   id="LiberationSans-43"
                   d="M 38.671875 62.203125  Q 32.8125 62.203125 28.296875 60.25  Q 23.78125 58.296875 20.71875 54.6875  Q 17.671875 51.078125 16.109375 46  Q 14.546875 40.921875 14.546875 34.71875  Q 14.546875 28.515625 16.234375 23.359375  Q 17.921875 18.21875 21.0625 14.5  Q 24.21875 10.796875 28.78125 8.734375  Q 33.34375 6.6875 39.0625 6.6875  Q 43.0625 6.6875 46.359375 7.734375  Q 49.65625 8.796875 52.3125 10.6875  Q 54.984375 12.59375 57.078125 15.203125  Q 59.1875 17.828125 60.796875 21  L 68.40625 17.1875  Q 66.546875 13.328125 63.8125 10  Q 61.078125 6.6875 57.390625 4.25  Q 53.71875 1.8125 49.046875 0.40625  Q 44.390625 -0.984375 38.625 -0.984375  Q 30.28125 -0.984375 24 1.671875  Q 17.71875 4.34375 13.5 9.109375  Q 9.28125 13.875 7.171875 20.40625  Q 5.078125 26.953125 5.078125 34.71875  Q 5.078125 42.78125 7.296875 49.265625  Q 9.515625 55.765625 13.78125 60.328125  Q 18.0625 64.890625 24.3125 67.359375  Q 30.5625 69.828125 38.578125 69.828125  Q 49.5625 69.828125 56.9375 65.53125  Q 64.3125 61.234375 67.78125 52.78125  L 58.9375 49.859375  Q 57.953125 52.296875 56.296875 54.515625  Q 54.640625 56.734375 52.140625 58.4375  Q 49.65625 60.15625 46.3125 61.171875  Q 42.96875 62.203125 38.671875 62.203125  z " />
              </defs>
              <g
                 id="g24"
                 transform="translate(120.578125 366.686875)scale(0.1 -0.1)"
                 style="fill:#262626;">
                <use
                   id="use26"
                   xlink:href="#LiberationSans-48" />
                <use
                   id="use28"
                   xlink:href="#LiberationSans-43"
                   x="72.216797" />
              </g>
            </g>
          </g>
          <g
             id="xtick_2">
            <g
               id="line2d_2" />
            <g
               id="text_2">
              <!-- HE -->
              <defs
                 id="defs33">
                <path
                   id="LiberationSans-45"
                   d="M 8.203125 0  L 8.203125 68.796875  L 60.40625 68.796875  L 60.40625 61.1875  L 17.53125 61.1875  L 17.53125 39.109375  L 57.46875 39.109375  L 57.46875 31.59375  L 17.53125 31.59375  L 17.53125 7.625  L 62.40625 7.625  L 62.40625 0  z " />
              </defs>
              <g
                 id="g36"
                 transform="translate(232.453906 366.686875)scale(0.1 -0.1)"
                 style="fill:#262626;">
                <use
                   id="use38"
                   xlink:href="#LiberationSans-48" />
                <use
                   id="use40"
                   xlink:href="#LiberationSans-45"
                   x="72.216797" />
              </g>
            </g>
          </g>
          <g
             id="xtick_3">
            <g
               id="line2d_3" />
            <g
               id="text_3">
              <!-- EC -->
              <g
                 id="g45"
                 transform="translate(344.053906 366.686875)scale(0.1 -0.1)"
                 style="fill:#262626;">
                <use
                   id="use47"
                   xlink:href="#LiberationSans-45" />
                <use
                   id="use49"
                   xlink:href="#LiberationSans-43"
                   x="66.699219" />
              </g>
            </g>
          </g>
          <g
             id="xtick_4">
            <g
               id="line2d_4" />
            <g
               id="text_4">
              <!-- HEC -->
              <g
                 id="g54"
                 transform="translate(452.042969 366.686875)scale(0.1 -0.1)"
                 style="fill:#262626;">
                <use
                   id="use56"
                   xlink:href="#LiberationSans-48" />
                <use
                   id="use58"
                   xlink:href="#LiberationSans-45"
                   x="72.216797" />
                <use
                   id="use60"
                   xlink:href="#LiberationSans-43"
                   x="138.916016" />
              </g>
            </g>
          </g>
        </g>
        <g
           id="matplotlib.axis_2">
          <g
             id="ytick_1">
            <g
               id="line2d_5">
              <path
                 id="path65"
                 style="fill:none;stroke:#ffffff;stroke-linecap:round;"
                 d="M 72 352.44  L 518.4 352.44  "
                 clip-path="url(#p848e1b6beb)" />
            </g>
            <g
               id="line2d_6" />
            <g
               id="text_5">
              <!-- 0.0 -->
              <defs
                 id="defs69">
                <path
                   id="LiberationSans-30"
                   d="M 51.703125 34.421875  Q 51.703125 24.515625 49.828125 17.75  Q 47.953125 10.984375 44.703125 6.8125  Q 41.453125 2.640625 37.0625 0.828125  Q 32.671875 -0.984375 27.6875 -0.984375  Q 22.65625 -0.984375 18.3125 0.828125  Q 13.96875 2.640625 10.765625 6.78125  Q 7.5625 10.9375 5.734375 17.703125  Q 3.90625 24.46875 3.90625 34.421875  Q 3.90625 44.828125 5.734375 51.640625  Q 7.5625 58.453125 10.78125 62.5  Q 14.015625 66.546875 18.40625 68.1875  Q 22.796875 69.828125 27.984375 69.828125  Q 32.90625 69.828125 37.21875 68.1875  Q 41.546875 66.546875 44.765625 62.5  Q 48 58.453125 49.84375 51.640625  Q 51.703125 44.828125 51.703125 34.421875  z M 42.78125 34.421875  Q 42.78125 42.625 41.796875 48.0625  Q 40.828125 53.515625 38.921875 56.765625  Q 37.015625 60.015625 34.25 61.359375  Q 31.5 62.703125 27.984375 62.703125  Q 24.265625 62.703125 21.4375 61.328125  Q 18.609375 59.96875 16.671875 56.71875  Q 14.75 53.46875 13.765625 48.015625  Q 12.796875 42.578125 12.796875 34.421875  Q 12.796875 26.515625 13.796875 21.09375  Q 14.796875 15.671875 16.71875 12.375  Q 18.65625 9.078125 21.4375 7.640625  Q 24.21875 6.203125 27.78125 6.203125  Q 31.25 6.203125 34.03125 7.640625  Q 36.8125 9.078125 38.734375 12.375  Q 40.671875 15.671875 41.71875 21.09375  Q 42.78125 26.515625 42.78125 34.421875  z " />
                <path
                   id="LiberationSans-2e"
                   d="M 9.125 0  L 9.125 10.6875  L 18.65625 10.6875  L 18.65625 0  z " />
              </defs>
              <g
                 id="g73"
                 transform="translate(51.1 356.063438)scale(0.1 -0.1)"
                 style="fill:#262626;">
                <use
                   id="use75"
                   xlink:href="#LiberationSans-30" />
                <use
                   id="use77"
                   xlink:href="#LiberationSans-2e"
                   x="55.615234" />
                <use
                   id="use79"
                   xlink:href="#LiberationSans-30"
                   x="83.398438" />
              </g>
            </g>
          </g>
          <g
             id="ytick_2">
            <g
               id="line2d_7">
              <path
                 id="path83"
                 style="fill:none;stroke:#ffffff;stroke-linecap:round;"
                 d="M 72 294.945712  L 518.4 294.945712  "
                 clip-path="url(#p848e1b6beb)" />
            </g>
            <g
               id="line2d_8" />
            <g
               id="text_6">
              <!-- 0.1 -->
              <defs
                 id="defs87">
                <path
                   id="LiberationSans-31"
                   d="M 7.625 0  L 7.625 7.46875  L 25.140625 7.46875  L 25.140625 60.40625  L 9.625 49.3125  L 9.625 57.625  L 25.875 68.796875  L 33.984375 68.796875  L 33.984375 7.46875  L 50.734375 7.46875  L 50.734375 0  z " />
              </defs>
              <g
                 id="g90"
                 transform="translate(51.1 298.56915)scale(0.1 -0.1)"
                 style="fill:#262626;">
                <use
                   id="use92"
                   xlink:href="#LiberationSans-30" />
                <use
                   id="use94"
                   xlink:href="#LiberationSans-2e"
                   x="55.615234" />
                <use
                   id="use96"
                   xlink:href="#LiberationSans-31"
                   x="83.398438" />
              </g>
            </g>
          </g>
          <g
             id="ytick_3">
            <g
               id="line2d_9">
              <path
                 id="path100"
                 style="fill:none;stroke:#ffffff;stroke-linecap:round;"
                 d="M 72 237.451424  L 518.4 237.451424  "
                 clip-path="url(#p848e1b6beb)" />
            </g>
            <g
               id="line2d_10" />
            <g
               id="text_7">
              <!-- 0.2 -->
              <defs
                 id="defs104">
                <path
                   id="LiberationSans-32"
                   d="M 5.03125 0  L 5.03125 6.203125  Q 7.515625 11.921875 11.109375 16.28125  Q 14.703125 20.65625 18.65625 24.1875  Q 22.609375 27.734375 26.484375 30.765625  Q 30.375 33.796875 33.5 36.8125  Q 36.625 39.84375 38.546875 43.15625  Q 40.484375 46.484375 40.484375 50.6875  Q 40.484375 53.609375 39.59375 55.828125  Q 38.71875 58.0625 37.0625 59.5625  Q 35.40625 61.078125 33.078125 61.828125  Q 30.765625 62.59375 27.9375 62.59375  Q 25.296875 62.59375 22.96875 61.859375  Q 20.65625 61.140625 18.84375 59.671875  Q 17.046875 58.203125 15.890625 56.03125  Q 14.75 53.859375 14.40625 50.984375  L 5.421875 51.8125  Q 5.859375 55.515625 7.46875 58.78125  Q 9.078125 62.0625 11.90625 64.53125  Q 14.75 67 18.71875 68.40625  Q 22.703125 69.828125 27.9375 69.828125  Q 33.0625 69.828125 37.0625 68.609375  Q 41.0625 67.390625 43.8125 64.984375  Q 46.578125 62.59375 48.046875 59.078125  Q 49.515625 55.5625 49.515625 50.984375  Q 49.515625 47.515625 48.265625 44.390625  Q 47.015625 41.265625 44.9375 38.421875  Q 42.875 35.59375 40.140625 32.953125  Q 37.40625 30.328125 34.421875 27.8125  Q 31.453125 25.296875 28.421875 22.828125  Q 25.390625 20.359375 22.71875 17.859375  Q 20.0625 15.375 17.96875 12.8125  Q 15.875 10.25 14.703125 7.46875  L 50.59375 7.46875  L 50.59375 0  z " />
              </defs>
              <g
                 id="g107"
                 transform="translate(51.1 241.074862)scale(0.1 -0.1)"
                 style="fill:#262626;">
                <use
                   id="use109"
                   xlink:href="#LiberationSans-30" />
                <use
                   id="use111"
                   xlink:href="#LiberationSans-2e"
                   x="55.615234" />
                <use
                   id="use113"
                   xlink:href="#LiberationSans-32"
                   x="83.398438" />
              </g>
            </g>
          </g>
          <g
             id="ytick_4">
            <g
               id="line2d_11">
              <path
                 id="path117"
                 style="fill:none;stroke:#ffffff;stroke-linecap:round;"
                 d="M 72 179.957136  L 518.4 179.957136  "
                 clip-path="url(#p848e1b6beb)" />
            </g>
            <g
               id="line2d_12" />
            <g
               id="text_8">
              <!-- 0.3 -->
              <defs
                 id="defs121">
                <path
                   id="LiberationSans-33"
                   d="M 51.21875 19  Q 51.21875 14.265625 49.671875 10.546875  Q 48.140625 6.84375 45.1875 4.265625  Q 42.234375 1.703125 37.859375 0.359375  Q 33.5 -0.984375 27.875 -0.984375  Q 21.484375 -0.984375 17.109375 0.609375  Q 12.75 2.203125 9.90625 4.8125  Q 7.078125 7.421875 5.65625 10.765625  Q 4.25 14.109375 3.8125 17.671875  L 12.890625 18.5  Q 13.28125 15.765625 14.328125 13.515625  Q 15.375 11.28125 17.1875 9.671875  Q 19 8.0625 21.625 7.171875  Q 24.265625 6.296875 27.875 6.296875  Q 34.515625 6.296875 38.296875 9.5625  Q 42.09375 12.84375 42.09375 19.28125  Q 42.09375 23.09375 40.40625 25.40625  Q 38.71875 27.734375 36.203125 29.03125  Q 33.6875 30.328125 30.734375 30.765625  Q 27.78125 31.203125 25.296875 31.203125  L 20.3125 31.203125  L 20.3125 38.8125  L 25.09375 38.8125  Q 27.59375 38.8125 30.265625 39.328125  Q 32.953125 39.84375 35.171875 41.1875  Q 37.40625 42.53125 38.84375 44.828125  Q 40.28125 47.125 40.28125 50.6875  Q 40.28125 56.203125 37.03125 59.390625  Q 33.796875 62.59375 27.390625 62.59375  Q 21.578125 62.59375 17.984375 59.609375  Q 14.40625 56.640625 13.8125 51.21875  L 4.984375 51.90625  Q 5.515625 56.453125 7.46875 59.8125  Q 9.421875 63.1875 12.421875 65.40625  Q 15.4375 67.625 19.28125 68.71875  Q 23.140625 69.828125 27.484375 69.828125  Q 33.25 69.828125 37.390625 68.375  Q 41.546875 66.9375 44.1875 64.46875  Q 46.828125 62.015625 48.0625 58.6875  Q 49.3125 55.375 49.3125 51.609375  Q 49.3125 48.578125 48.484375 45.9375  Q 47.65625 43.3125 45.890625 41.203125  Q 44.140625 39.109375 41.421875 37.59375  Q 38.71875 36.078125 34.90625 35.296875  L 34.90625 35.109375  Q 39.0625 34.671875 42.140625 33.21875  Q 45.21875 31.78125 47.21875 29.625  Q 49.21875 27.484375 50.21875 24.75  Q 51.21875 22.015625 51.21875 19  z " />
              </defs>
              <g
                 id="g124"
                 transform="translate(51.1 183.580574)scale(0.1 -0.1)"
                 style="fill:#262626;">
                <use
                   id="use126"
                   xlink:href="#LiberationSans-30" />
                <use
                   id="use128"
                   xlink:href="#LiberationSans-2e"
                   x="55.615234" />
                <use
                   id="use130"
                   xlink:href="#LiberationSans-33"
                   x="83.398438" />
              </g>
            </g>
          </g>
          <g
             id="ytick_5">
            <g
               id="line2d_13">
              <path
                 id="path134"
                 style="fill:none;stroke:#ffffff;stroke-linecap:round;"
                 d="M 72 122.462849  L 518.4 122.462849  "
                 clip-path="url(#p848e1b6beb)" />
            </g>
            <g
               id="line2d_14" />
            <g
               id="text_9">
              <!-- 0.4 -->
              <defs
                 id="defs138">
                <path
                   id="LiberationSans-34"
                   d="M 43.015625 15.578125  L 43.015625 0  L 34.71875 0  L 34.71875 15.578125  L 2.296875 15.578125  L 2.296875 22.40625  L 33.796875 68.796875  L 43.015625 68.796875  L 43.015625 22.515625  L 52.6875 22.515625  L 52.6875 15.578125  z M 34.71875 58.890625  Q 34.625 58.640625 34.234375 57.9375  Q 33.84375 57.234375 33.34375 56.34375  Q 32.859375 55.46875 32.34375 54.5625  Q 31.84375 53.65625 31.453125 53.078125  L 13.8125 27.09375  Q 13.578125 26.703125 13.109375 26.0625  Q 12.640625 25.4375 12.15625 24.78125  Q 11.671875 24.125 11.171875 23.484375  Q 10.6875 22.859375 10.40625 22.515625  L 34.71875 22.515625  z " />
              </defs>
              <g
                 id="g141"
                 transform="translate(51.1 126.086286)scale(0.1 -0.1)"
                 style="fill:#262626;">
                <use
                   id="use143"
                   xlink:href="#LiberationSans-30" />
                <use
                   id="use145"
                   xlink:href="#LiberationSans-2e"
                   x="55.615234" />
                <use
                   id="use147"
                   xlink:href="#LiberationSans-34"
                   x="83.398438" />
              </g>
            </g>
          </g>
          <g
             id="ytick_6">
            <g
               id="line2d_15">
              <path
                 id="path151"
                 style="fill:none;stroke:#ffffff;stroke-linecap:round;"
                 d="M 72 64.968561  L 518.4 64.968561  "
                 clip-path="url(#p848e1b6beb)" />
            </g>
            <g
               id="line2d_16" />
            <g
               id="text_10">
              <!-- 0.5 -->
              <defs
                 id="defs155">
                <path
                   id="LiberationSans-35"
                   d="M 51.421875 22.40625  Q 51.421875 17.234375 49.859375 12.9375  Q 48.296875 8.640625 45.21875 5.53125  Q 42.140625 2.4375 37.578125 0.71875  Q 33.015625 -0.984375 27 -0.984375  Q 21.578125 -0.984375 17.546875 0.28125  Q 13.53125 1.5625 10.734375 3.78125  Q 7.953125 6 6.3125 8.984375  Q 4.6875 11.96875 4 15.375  L 12.890625 16.40625  Q 13.421875 14.453125 14.390625 12.625  Q 15.375 10.796875 17.0625 9.34375  Q 18.75 7.90625 21.21875 7.046875  Q 23.6875 6.203125 27.203125 6.203125  Q 30.609375 6.203125 33.390625 7.25  Q 36.1875 8.296875 38.15625 10.34375  Q 40.140625 12.40625 41.203125 15.375  Q 42.28125 18.359375 42.28125 22.21875  Q 42.28125 25.390625 41.25 28.046875  Q 40.234375 30.71875 38.328125 32.640625  Q 36.421875 34.578125 33.65625 35.640625  Q 30.90625 36.71875 27.390625 36.71875  Q 25.203125 36.71875 23.34375 36.328125  Q 21.484375 35.9375 19.890625 35.25  Q 18.3125 34.578125 17.015625 33.671875  Q 15.71875 32.765625 14.59375 31.78125  L 6 31.78125  L 8.296875 68.796875  L 47.40625 68.796875  L 47.40625 61.328125  L 16.3125 61.328125  L 14.984375 39.5  Q 17.328125 41.3125 20.84375 42.59375  Q 24.359375 43.890625 29.203125 43.890625  Q 34.328125 43.890625 38.421875 42.328125  Q 42.53125 40.765625 45.40625 37.90625  Q 48.296875 35.0625 49.859375 31.109375  Q 51.421875 27.15625 51.421875 22.40625  z " />
              </defs>
              <g
                 id="g158"
                 transform="translate(51.1 68.591998)scale(0.1 -0.1)"
                 style="fill:#262626;">
                <use
                   id="use160"
                   xlink:href="#LiberationSans-30" />
                <use
                   id="use162"
                   xlink:href="#LiberationSans-2e"
                   x="55.615234" />
                <use
                   id="use164"
                   xlink:href="#LiberationSans-35"
                   x="83.398438" />
              </g>
            </g>
          </g>
        </g>
        <g
           id="patch_3">
          <path
             id="path167"
             style="fill:#597dbe;"
             d="M 83.16 352.44  L 172.44 352.44  L 172.44 72.547555  L 83.16 72.547555  z "
             clip-path="url(#p848e1b6beb)" />
        </g>
        <g
           id="patch_4">
          <path
             id="path170"
             style="fill:#76bf72;"
             d="M 194.76 352.44  L 284.04 352.44  L 284.04 351.825636  L 194.76 351.825636  z "
             clip-path="url(#p848e1b6beb)" />
        </g>
        <g
           id="patch_5">
          <path
             id="path173"
             style="fill:#c76e6e;"
             d="M 306.36 352.44  L 395.64 352.44  L 395.64 62.04  L 306.36 62.04  z "
             clip-path="url(#p848e1b6beb)" />
        </g>
        <g
           id="patch_6">
          <path
             id="path176"
             style="fill:#af85be;"
             d="M 417.96 352.44  L 507.24 352.44  L 507.24 348.403931  L 417.96 348.403931  z "
             clip-path="url(#p848e1b6beb)" />
        </g>
        <g
           id="line2d_17">
          <path
             id="path179"
             style="fill:none;stroke:#424242;stroke-linecap:round;stroke-width:3.15;"
             d="M 0 0  "
             clip-path="url(#p848e1b6beb)" />
        </g>
        <g
           id="line2d_18">
          <path
             id="path182"
             style="fill:none;stroke:#424242;stroke-linecap:round;stroke-width:3.15;"
             d="M 0 0  "
             clip-path="url(#p848e1b6beb)" />
        </g>
        <g
           id="line2d_19">
          <path
             id="path185"
             style="fill:none;stroke:#424242;stroke-linecap:round;stroke-width:3.15;"
             d="M 0 0  "
             clip-path="url(#p848e1b6beb)" />
        </g>
        <g
           id="line2d_20">
          <path
             id="path188"
             style="fill:none;stroke:#424242;stroke-linecap:round;stroke-width:3.15;"
             d="M 0 0  "
             clip-path="url(#p848e1b6beb)" />
        </g>
        <g
           id="patch_7">
          <path
             id="path191"
             style="fill:none;"
             d="M 72 352.44  L 72 47.52  " />
        </g>
        <g
           id="patch_8">
          <path
             id="path194"
             style="fill:none;"
             d="M 518.4 352.44  L 518.4 47.52  " />
        </g>
        <g
           id="patch_9">
          <path
             id="path197"
             style="fill:none;"
             d="M 72 352.44  L 518.4 352.44  " />
        </g>
        <g
           id="patch_10">
          <path
             id="path200"
             style="fill:none;"
             d="M 72 47.52  L 518.4 47.52  " />
        </g>
      </g>
    </g>
    <rect
       y="356.37582"
       x="91.81208"
       height="20.778522"
       width="394.79193"
       id="rect9574"
       style="fill:#ffffff;fill-opacity:0.94117647;stroke:none;stroke-width:0.80000001;stroke-linecap:butt;stroke-linejoin:round;stroke-miterlimit:4;stroke-dasharray:none;stroke-dashoffset:0;stroke-opacity:1" />
    <g
       style="stroke-linecap:butt;stroke-linejoin:round"
       transform="translate(-9.997315,-52.505163)"
       id="g9605">
      <text
         xml:space="preserve"
         style="font-style:normal;font-weight:normal;font-size:32px;line-height:125%;font-family:sans-serif;text-align:center;letter-spacing:0px;word-spacing:0px;text-anchor:middle;fill:#000000;fill-opacity:1;stroke:none;stroke-width:1px;stroke-linecap:butt;stroke-linejoin:miter;stroke-opacity:1"
         x="118.72215"
         y="431.30606"
         id="text4337"
         sodipodi:linespacing="125%"><tspan
           sodipodi:role="line"
           id="tspan4339"
           style="font-size:12px;stroke-linecap:butt;stroke-linejoin:round"
           x="120.63231"
           y="431.30606">H </tspan></text>
      <text
         xml:space="preserve"
         style="font-style:normal;font-weight:normal;font-size:32px;line-height:125%;font-family:sans-serif;text-align:center;letter-spacing:0px;word-spacing:0px;text-anchor:middle;fill:#000000;fill-opacity:1;stroke:none;stroke-width:1px;stroke-linecap:butt;stroke-linejoin:miter;stroke-opacity:1"
         x="151.92657"
         y="431.3002"
         id="text4337-3"
         sodipodi:linespacing="125%"><tspan
           sodipodi:role="line"
           id="tspan4339-6"
           style="font-size:12px;stroke-linecap:butt;stroke-linejoin:round"
           x="153.83673"
           y="431.3002">C </tspan></text>
      <path
         style="fill:none;fill-rule:evenodd;stroke:#000000;stroke-width:0.80000001;stroke-linecap:butt;stroke-linejoin:miter;stroke-miterlimit:4;stroke-dasharray:none;stroke-opacity:1;marker-start:url(#marker9147);marker-end:url(#marker9319)"
         d="m 128.16011,426.93204 15.2543,0"
         id="path4379"
         inkscape:connector-curvature="0" />
    </g>
    <g
       style="stroke-linecap:butt;stroke-linejoin:round"
       transform="translate(20.146682,-52.013158)"
       id="g9624">
      <text
         xml:space="preserve"
         style="font-style:normal;font-weight:normal;font-size:32px;line-height:125%;font-family:sans-serif;text-align:center;letter-spacing:0px;word-spacing:0px;text-anchor:middle;fill:#000000;fill-opacity:1;stroke:none;stroke-width:1px;stroke-linecap:butt;stroke-linejoin:miter;stroke-opacity:1"
         x="201.21678"
         y="430.81699"
         id="text4337-9"
         sodipodi:linespacing="125%"><tspan
           sodipodi:role="line"
           id="tspan4339-1"
           style="font-size:12px;stroke-linecap:butt;stroke-linejoin:round"
           x="203.12694"
           y="430.81699">H </tspan></text>
      <text
         xml:space="preserve"
         style="font-style:normal;font-weight:normal;font-size:32px;line-height:125%;font-family:sans-serif;text-align:center;letter-spacing:0px;word-spacing:0px;text-anchor:middle;fill:#000000;fill-opacity:1;stroke:none;stroke-width:1px;stroke-linecap:butt;stroke-linejoin:miter;stroke-opacity:1"
         x="234.42122"
         y="430.81113"
         id="text4337-3-2"
         sodipodi:linespacing="125%"><tspan
           sodipodi:role="line"
           id="tspan4339-6-7"
           style="font-size:12px;stroke-linecap:butt;stroke-linejoin:round"
           x="236.33138"
           y="430.81113">E </tspan></text>
      <path
         style="fill:none;fill-rule:evenodd;stroke:#000000;stroke-width:0.80000001;stroke-linecap:butt;stroke-linejoin:miter;stroke-miterlimit:4;stroke-dasharray:none;stroke-opacity:1;marker-start:url(#Arrow1Mstart);marker-end:url(#Arrow1Mend)"
         d="m 210.78072,426.44296 15.2543,0"
         id="path4379-0"
         inkscape:connector-curvature="0" />
    </g>
    <g
       style="stroke-linecap:butt;stroke-linejoin:round"
       transform="translate(5.9086676,-51.049627)"
       id="g9643">
      <text
         xml:space="preserve"
         style="font-style:normal;font-weight:normal;font-size:32px;line-height:125%;font-family:sans-serif;text-align:center;letter-spacing:0px;word-spacing:0px;text-anchor:middle;fill:#000000;fill-opacity:1;stroke:none;stroke-width:1px;stroke-linecap:butt;stroke-linejoin:miter;stroke-opacity:1"
         x="327.33759"
         y="429.85052"
         id="text4337-2"
         sodipodi:linespacing="125%"><tspan
           sodipodi:role="line"
           id="tspan4339-61"
           style="font-size:12px;stroke-linecap:butt;stroke-linejoin:round"
           x="329.24774"
           y="429.85052">E </tspan></text>
      <text
         xml:space="preserve"
         style="font-style:normal;font-weight:normal;font-size:32px;line-height:125%;font-family:sans-serif;text-align:center;letter-spacing:0px;word-spacing:0px;text-anchor:middle;fill:#000000;fill-opacity:1;stroke:none;stroke-width:1px;stroke-linecap:butt;stroke-linejoin:miter;stroke-opacity:1"
         x="360.54202"
         y="429.84467"
         id="text4337-3-8"
         sodipodi:linespacing="125%"><tspan
           sodipodi:role="line"
           id="tspan4339-6-79"
           style="font-size:12px;stroke-linecap:butt;stroke-linejoin:round"
           x="362.45218"
           y="429.84467">C </tspan></text>
      <path
         style="fill:none;fill-rule:evenodd;stroke:#000000;stroke-width:0.80000001;stroke-linecap:butt;stroke-linejoin:miter;stroke-miterlimit:4;stroke-dasharray:none;stroke-opacity:1;marker-start:url(#marker5908);marker-end:url(#marker5996)"
         d="m 336.77554,425.47651 15.2543,0"
         id="path4379-2"
         inkscape:connector-curvature="0" />
    </g>
    <g
       style="stroke-linecap:butt;stroke-linejoin:round"
       transform="translate(6.797315,-62.485906)"
       id="g9662">
      <text
         xml:space="preserve"
         style="font-style:normal;font-weight:normal;font-size:32px;line-height:125%;font-family:sans-serif;text-align:center;letter-spacing:0px;word-spacing:0px;text-anchor:middle;fill:#000000;fill-opacity:1;stroke:none;stroke-width:1px;stroke-linecap:butt;stroke-linejoin:miter;stroke-opacity:1"
         x="437.84497"
         y="427.43149"
         id="text4337-5"
         sodipodi:linespacing="125%"><tspan
           sodipodi:role="line"
           id="tspan4339-9"
           style="font-size:12px;stroke-linecap:butt;stroke-linejoin:round"
           x="439.75513"
           y="427.43149">H </tspan></text>
      <text
         xml:space="preserve"
         style="font-style:normal;font-weight:normal;font-size:32px;line-height:125%;font-family:sans-serif;text-align:center;letter-spacing:0px;word-spacing:0px;text-anchor:middle;fill:#000000;fill-opacity:1;stroke:none;stroke-width:1px;stroke-linecap:butt;stroke-linejoin:miter;stroke-opacity:1"
         x="474.24942"
         y="427.43149"
         id="text4337-3-22"
         sodipodi:linespacing="125%"><tspan
           sodipodi:role="line"
           id="tspan4339-6-8"
           style="font-size:12px;stroke-linecap:butt;stroke-linejoin:round"
           x="476.15958"
           y="427.43149">E </tspan></text>
      <path
         style="fill:none;fill-rule:evenodd;stroke:#000000;stroke-width:0.80000001;stroke-linecap:butt;stroke-linejoin:miter;stroke-miterlimit:4;stroke-dasharray:none;stroke-opacity:1;marker-start:url(#marker6238);marker-end:url(#marker6350)"
         d="m 449.00886,423.05746 15.2543,0"
         id="path4379-9"
         inkscape:connector-curvature="0" />
      <text
         xml:space="preserve"
         style="font-style:normal;font-weight:normal;font-size:32px;line-height:125%;font-family:sans-serif;text-align:center;letter-spacing:0px;word-spacing:0px;text-anchor:middle;fill:#000000;fill-opacity:1;stroke:none;stroke-width:1px;stroke-linecap:butt;stroke-linejoin:miter;stroke-opacity:1"
         x="456.2991"
         y="454.9722"
         id="text4337-3-8-7"
         sodipodi:linespacing="125%"><tspan
           sodipodi:role="line"
           id="tspan4339-6-79-3"
           style="font-size:12px;stroke-linecap:butt;stroke-linejoin:round"
           x="458.20926"
           y="454.9722">C </tspan></text>
      <path
         style="fill:none;fill-rule:evenodd;stroke:#000000;stroke-width:0.80000001;stroke-linecap:butt;stroke-linejoin:miter;stroke-miterlimit:4;stroke-dasharray:none;stroke-opacity:1;marker-start:url(#marker6238-4);marker-end:url(#marker6350-0)"
         d="m 461.06585,441.98381 10.78642,-10.78642"
         id="path4379-9-6"
         inkscape:connector-curvature="0" />
      <path
         style="fill:none;fill-rule:evenodd;stroke:#000000;stroke-width:0.80000001;stroke-linecap:butt;stroke-linejoin:miter;stroke-miterlimit:4;stroke-dasharray:none;stroke-opacity:1;marker-start:url(#marker6238-4-1);marker-end:url(#marker6350-0-6)"
         d="m 440.46987,431.19739 10.78642,10.78642"
         id="path4379-9-6-2"
         inkscape:connector-curvature="0" />
    </g>
  </g>
</svg>
